<svg width="1920" height="960" fill="none" xmlns="http://www.w3.org/2000/svg"><path d="M1639.44 1C1131.34 105.229 144.823 345.783 263.541 474.164 382.258 602.546-139.354 850.881-415 959" stroke="url(#paint0_linear)"/><path d="M1671.68 1C1163.58 105.229 177.067 345.783 295.784 474.164 414.502 602.546-107.11 850.881-382.756 959" stroke="url(#paint1_linear)"/><path d="M1703.93 1C1195.83 105.229 209.311 345.783 328.028 474.164 446.746 602.546-74.8663 850.881-350.512 959" stroke="url(#paint2_linear)"/><path d="M1736.17 1C1228.07 105.229 241.554 345.783 360.272 474.164 478.99 602.546-42.6227 850.881-318.269 959" stroke="url(#paint3_linear)"/><path d="M1768.42 1C1260.32 105.229 273.798 345.783 392.516 474.164 511.234 602.546-10.3785 850.881-286.024 959" stroke="url(#paint4_linear)"/><path d="M1800.66 1c-508.1 104.229-1494.618 344.783-1375.9 473.164C543.478 602.546 21.8651 850.881-253.781 959" stroke="url(#paint5_linear)"/><path d="M1832.9 1C1324.8 105.229 338.286 345.783 457.004 474.164 575.722 602.546 54.1093 850.881-221.537 959" stroke="url(#paint6_linear)"/><path d="M1865.15 1C1357.05 105.229 370.53 345.783 489.248 474.164 607.965 602.546 86.3529 850.881-189.293 959" stroke="url(#paint7_linear)"/><path d="M1897.39 1C1389.29 105.229 402.774 345.783 521.492 474.164 640.209 602.546 118.597 850.881-157.049 959" stroke="url(#paint8_linear)"/><path d="M1929.64 1C1421.54 105.229 435.018 345.783 553.735 474.164 672.453 602.546 150.841 850.881-124.805 959" stroke="url(#paint9_linear)"/><path d="M1961.88 1c-508.1 104.229-1494.618 344.783-1375.9 473.164C704.697 602.546 183.085 850.881-92.561 959" stroke="url(#paint10_linear)"/><path d="M1994.12 1C1486.02 105.229 499.506 345.783 618.223 474.164 736.941 602.546 215.329 850.881-60.3174 959" stroke="url(#paint11_linear)"/><path d="M2026.37 1C1518.27 105.229 531.749 345.783 650.467 474.164 769.185 602.546 247.572 850.881-28.0737 959" stroke="url(#paint12_linear)"/><path d="M2058.61 1C1550.51 105.229 563.993 345.783 682.711 474.164 801.429 602.546 279.816 850.881 4.17041 959" stroke="url(#paint13_linear)"/><path d="M2090.85 1C1582.76 105.229 596.237 345.783 714.955 474.164 833.672 602.546 312.06 850.881 36.4141 959" stroke="url(#paint14_linear)"/><path d="M2123.1 1C1615 105.229 628.481 345.783 747.199 474.164 865.917 602.546 344.304 850.881 68.6582 959" stroke="url(#paint15_linear)"/><path d="M2155.34 1C1647.24 105.229 660.725 345.783 779.442 474.164 898.16 602.546 376.548 850.881 100.902 959" stroke="url(#paint16_linear)"/><path d="M2187.59 1C1679.49 105.229 692.969 345.783 811.687 474.164 930.404 602.546 408.792 850.881 133.146 959" stroke="url(#paint17_linear)"/><path d="M2219.83 1c-508.1 104.229-1494.617 344.783-1375.9 473.164C962.648 602.546 441.036 850.881 165.39 959" stroke="url(#paint18_linear)"/><path d="M2252.07 1C1743.98 105.229 757.457 345.783 876.174 474.164 994.892 602.546 473.28 850.881 197.634 959" stroke="url(#paint19_linear)"/><path d="M2284.32 1C1776.22 105.229 789.7 345.783 908.418 474.164 1027.14 602.546 505.523 850.881 229.877 959" stroke="url(#paint20_linear)"/><path d="M2316.56 1C1808.46 105.229 821.944 345.783 940.662 474.164 1059.38 602.546 537.767 850.881 262.121 959" stroke="url(#paint21_linear)"/><path d="M2348.81 1C1840.71 105.229 854.188 345.783 972.906 474.164 1091.62 602.546 570.011 850.881 294.365 959" stroke="url(#paint22_linear)"/><path d="M2381.05 1c-508.1 104.229-1494.618 344.783-1375.9 473.164C1123.87 602.546 602.255 850.881 326.609 959" stroke="url(#paint23_linear)"/><path d="M2413.29 1c-508.1 104.229-1494.614 344.783-1375.9 473.164C1156.11 602.546 634.499 850.881 358.853 959" stroke="url(#paint24_linear)"/><path d="M2445.54 1c-508.1 104.229-1494.62 344.783-1375.9 473.164C1188.35 602.546 666.743 850.881 391.097 959" stroke="url(#paint25_linear)"/><path d="M2477.78 1c-508.1 104.229-1494.616 344.783-1375.9 473.164C1220.6 602.546 698.987 850.881 423.341 959" stroke="url(#paint26_linear)"/><path d="M2510.02 1c-508.09 104.229-1494.61 344.783-1375.89 473.164C1252.84 602.546 731.23 850.881 455.584 959" stroke="url(#paint27_linear)"/><path d="M2542.27 1c-508.1 104.229-1494.62 344.783-1375.9 473.164C1285.09 602.546 763.475 850.881 487.829 959" stroke="url(#paint28_linear)"/><path d="M2574.51 1c-508.1 104.229-1494.61 344.783-1375.9 473.164C1317.33 602.546 795.718 850.881 520.072 959" stroke="url(#paint29_linear)"/><path d="M2606.76 1c-508.1 104.229-1494.62 344.783-1375.9 473.164C1349.57 602.546 827.962 850.881 552.316 959" stroke="url(#paint30_linear)"/><path d="M2639 1c-508.1 104.229-1494.62 344.783-1375.9 473.164C1381.82 602.546 860.206 850.881 584.56 959" stroke="url(#paint31_linear)"/><path d="M2671.24 1c-508.09 104.229-1494.61 344.783-1375.9 473.164C1414.06 602.546 892.45 850.881 616.804 959" stroke="url(#paint32_linear)"/><path d="M2703.49 1c-508.1 104.229-1494.62 344.783-1375.9 473.164C1446.31 602.546 924.694 850.881 649.048 959" stroke="url(#paint33_linear)"/><path d="M2735.73 1c-508.1 104.229-1494.62 344.783-1375.9 473.164C1478.55 602.546 956.938 850.881 681.292 959" stroke="url(#paint34_linear)"/><defs><linearGradient id="paint0_linear" x1="1293.72" y1="106.04" x2="-349.517" y2="1129.56" gradientUnits="userSpaceOnUse"><stop stop-color="#fff" stop-opacity=".6"/><stop offset="1" stop-color="#fff" stop-opacity="0"/></linearGradient><linearGradient id="paint1_linear" x1="1325.96" y1="106.04" x2="-317.273" y2="1129.56" gradientUnits="userSpaceOnUse"><stop stop-color="#fff" stop-opacity=".6"/><stop offset="1" stop-color="#fff" stop-opacity="0"/></linearGradient><linearGradient id="paint2_linear" x1="1358.21" y1="106.04" x2="-285.029" y2="1129.56" gradientUnits="userSpaceOnUse"><stop stop-color="#fff" stop-opacity=".6"/><stop offset="1" stop-color="#fff" stop-opacity="0"/></linearGradient><linearGradient id="paint3_linear" x1="1390.45" y1="106.04" x2="-252.785" y2="1129.56" gradientUnits="userSpaceOnUse"><stop stop-color="#fff" stop-opacity=".6"/><stop offset="1" stop-color="#fff" stop-opacity="0"/></linearGradient><linearGradient id="paint4_linear" x1="1422.69" y1="106.04" x2="-220.541" y2="1129.56" gradientUnits="userSpaceOnUse"><stop stop-color="#fff" stop-opacity=".6"/><stop offset="1" stop-color="#fff" stop-opacity="0"/></linearGradient><linearGradient id="paint5_linear" x1="1454.94" y1="106.04" x2="-188.298" y2="1129.56" gradientUnits="userSpaceOnUse"><stop stop-color="#fff" stop-opacity=".6"/><stop offset="1" stop-color="#fff" stop-opacity="0"/></linearGradient><linearGradient id="paint6_linear" x1="1487.18" y1="106.04" x2="-156.053" y2="1129.56" gradientUnits="userSpaceOnUse"><stop stop-color="#fff" stop-opacity=".6"/><stop offset="1" stop-color="#fff" stop-opacity="0"/></linearGradient><linearGradient id="paint7_linear" x1="1519.42" y1="106.04" x2="-123.81" y2="1129.56" gradientUnits="userSpaceOnUse"><stop stop-color="#fff" stop-opacity=".6"/><stop offset="1" stop-color="#fff" stop-opacity="0"/></linearGradient><linearGradient id="paint8_linear" x1="1551.67" y1="106.04" x2="-91.5656" y2="1129.56" gradientUnits="userSpaceOnUse"><stop stop-color="#fff" stop-opacity=".6"/><stop offset="1" stop-color="#fff" stop-opacity="0"/></linearGradient><linearGradient id="paint9_linear" x1="1583.91" y1="106.04" x2="-59.3219" y2="1129.56" gradientUnits="userSpaceOnUse"><stop stop-color="#fff" stop-opacity=".6"/><stop offset="1" stop-color="#fff" stop-opacity="0"/></linearGradient><linearGradient id="paint10_linear" x1="1616.16" y1="106.04" x2="-27.0778" y2="1129.56" gradientUnits="userSpaceOnUse"><stop stop-color="#fff" stop-opacity=".6"/><stop offset="1" stop-color="#fff" stop-opacity="0"/></linearGradient><linearGradient id="paint11_linear" x1="1648.4" y1="106.04" x2="5.16585" y2="1129.56" gradientUnits="userSpaceOnUse"><stop stop-color="#fff" stop-opacity=".6"/><stop offset="1" stop-color="#fff" stop-opacity="0"/></linearGradient><linearGradient id="paint12_linear" x1="1680.64" y1="106.04" x2="37.4095" y2="1129.56" gradientUnits="userSpaceOnUse"><stop stop-color="#fff" stop-opacity=".6"/><stop offset="1" stop-color="#fff" stop-opacity="0"/></linearGradient><linearGradient id="paint13_linear" x1="1712.89" y1="106.04" x2="69.6536" y2="1129.56" gradientUnits="userSpaceOnUse"><stop stop-color="#fff" stop-opacity=".6"/><stop offset="1" stop-color="#fff" stop-opacity="0"/></linearGradient><linearGradient id="paint14_linear" x1="1745.13" y1="106.04" x2="101.897" y2="1129.56" gradientUnits="userSpaceOnUse"><stop stop-color="#fff" stop-opacity=".6"/><stop offset="1" stop-color="#fff" stop-opacity="0"/></linearGradient><linearGradient id="paint15_linear" x1="1777.38" y1="106.04" x2="134.141" y2="1129.56" gradientUnits="userSpaceOnUse"><stop stop-color="#fff" stop-opacity=".6"/><stop offset="1" stop-color="#fff" stop-opacity="0"/></linearGradient><linearGradient id="paint16_linear" x1="1809.62" y1="106.04" x2="166.385" y2="1129.56" gradientUnits="userSpaceOnUse"><stop stop-color="#fff" stop-opacity=".6"/><stop offset="1" stop-color="#fff" stop-opacity="0"/></linearGradient><linearGradient id="paint17_linear" x1="1841.86" y1="106.04" x2="198.629" y2="1129.56" gradientUnits="userSpaceOnUse"><stop stop-color="#fff" stop-opacity=".6"/><stop offset="1" stop-color="#fff" stop-opacity="0"/></linearGradient><linearGradient id="paint18_linear" x1="1874.11" y1="106.04" x2="230.873" y2="1129.56" gradientUnits="userSpaceOnUse"><stop stop-color="#fff" stop-opacity=".6"/><stop offset="1" stop-color="#fff" stop-opacity="0"/></linearGradient><linearGradient id="paint19_linear" x1="1906.35" y1="106.04" x2="263.117" y2="1129.56" gradientUnits="userSpaceOnUse"><stop stop-color="#fff" stop-opacity=".6"/><stop offset="1" stop-color="#fff" stop-opacity="0"/></linearGradient><linearGradient id="paint20_linear" x1="1938.6" y1="106.04" x2="295.361" y2="1129.56" gradientUnits="userSpaceOnUse"><stop stop-color="#fff" stop-opacity=".6"/><stop offset="1" stop-color="#fff" stop-opacity="0"/></linearGradient><linearGradient id="paint21_linear" x1="1970.84" y1="106.04" x2="327.604" y2="1129.56" gradientUnits="userSpaceOnUse"><stop stop-color="#fff" stop-opacity=".6"/><stop offset="1" stop-color="#fff" stop-opacity="0"/></linearGradient><linearGradient id="paint22_linear" x1="2003.08" y1="106.04" x2="359.848" y2="1129.56" gradientUnits="userSpaceOnUse"><stop stop-color="#fff" stop-opacity=".6"/><stop offset="1" stop-color="#fff" stop-opacity="0"/></linearGradient><linearGradient id="paint23_linear" x1="2035.33" y1="106.04" x2="392.093" y2="1129.56" gradientUnits="userSpaceOnUse"><stop stop-color="#fff" stop-opacity=".6"/><stop offset="1" stop-color="#fff" stop-opacity="0"/></linearGradient><linearGradient id="paint24_linear" x1="2067.57" y1="106.04" x2="424.336" y2="1129.56" gradientUnits="userSpaceOnUse"><stop stop-color="#fff" stop-opacity=".6"/><stop offset="1" stop-color="#fff" stop-opacity="0"/></linearGradient><linearGradient id="paint25_linear" x1="2099.81" y1="106.04" x2="456.58" y2="1129.56" gradientUnits="userSpaceOnUse"><stop stop-color="#fff" stop-opacity=".6"/><stop offset="1" stop-color="#fff" stop-opacity="0"/></linearGradient><linearGradient id="paint26_linear" x1="2132.06" y1="106.04" x2="488.824" y2="1129.56" gradientUnits="userSpaceOnUse"><stop stop-color="#fff" stop-opacity=".6"/><stop offset="1" stop-color="#fff" stop-opacity="0"/></linearGradient><linearGradient id="paint27_linear" x1="2164.3" y1="106.04" x2="521.068" y2="1129.56" gradientUnits="userSpaceOnUse"><stop stop-color="#fff" stop-opacity=".6"/><stop offset="1" stop-color="#fff" stop-opacity="0"/></linearGradient><linearGradient id="paint28_linear" x1="2196.55" y1="106.04" x2="553.312" y2="1129.56" gradientUnits="userSpaceOnUse"><stop stop-color="#fff" stop-opacity=".6"/><stop offset="1" stop-color="#fff" stop-opacity="0"/></linearGradient><linearGradient id="paint29_linear" x1="2228.79" y1="106.04" x2="585.556" y2="1129.56" gradientUnits="userSpaceOnUse"><stop stop-color="#fff" stop-opacity=".6"/><stop offset="1" stop-color="#fff" stop-opacity="0"/></linearGradient><linearGradient id="paint30_linear" x1="2261.03" y1="106.04" x2="617.8" y2="1129.56" gradientUnits="userSpaceOnUse"><stop stop-color="#fff" stop-opacity=".6"/><stop offset="1" stop-color="#fff" stop-opacity="0"/></linearGradient><linearGradient id="paint31_linear" x1="2293.28" y1="106.04" x2="650.043" y2="1129.56" gradientUnits="userSpaceOnUse"><stop stop-color="#fff" stop-opacity=".6"/><stop offset="1" stop-color="#fff" stop-opacity="0"/></linearGradient><linearGradient id="paint32_linear" x1="2325.52" y1="106.04" x2="682.287" y2="1129.56" gradientUnits="userSpaceOnUse"><stop stop-color="#fff" stop-opacity=".6"/><stop offset="1" stop-color="#fff" stop-opacity="0"/></linearGradient><linearGradient id="paint33_linear" x1="2357.77" y1="106.04" x2="714.531" y2="1129.56" gradientUnits="userSpaceOnUse"><stop stop-color="#fff" stop-opacity=".6"/><stop offset="1" stop-color="#fff" stop-opacity="0"/></linearGradient><linearGradient id="paint34_linear" x1="2390.01" y1="106.04" x2="746.775" y2="1129.56" gradientUnits="userSpaceOnUse"><stop stop-color="#fff" stop-opacity=".6"/><stop offset="1" stop-color="#fff" stop-opacity="0"/></linearGradient></defs></svg>