<svg width="1920" height="697" fill="none" xmlns="http://www.w3.org/2000/svg"><path d="M-234.328 1c52.245 0 1218.553 177.994 1146.44 287.38C840 397.765 2152.74 521.39 1882.69 617.184c-216.05 76.634 349.52 83.279 659.31 77.023" stroke="url(#paint0_linear)"/><path d="M-234.328 1c52.245 0 1218.553 177.994 1146.44 287.38C840 397.765 2152.74 521.39 1882.69 617.184c-216.05 76.634 349.52 83.279 659.31 77.023" stroke="url(#paint1_linear)"/><path d="M-234.328 1c52.245 0 1218.553 177.994 1146.44 287.38C840 397.765 2152.74 521.39 1882.69 617.184c-216.05 76.634 349.52 83.279 659.31 77.023" stroke="url(#paint2_linear)"/><path d="M-349.896 1c52.195 0 1217.373 177.994 1145.331 287.38-72.043 109.385 1239.425 233.01 969.635 328.804-215.83 76.634 349.19 83.279 658.67 77.023" stroke="url(#paint3_linear)"/><path d="M-349.896 1c52.195 0 1217.373 177.994 1145.331 287.38-72.043 109.385 1239.425 233.01 969.635 328.804-215.83 76.634 349.19 83.279 658.67 77.023" stroke="url(#paint4_linear)"/><path d="M-349.896 1c52.195 0 1217.373 177.994 1145.331 287.38-72.043 109.385 1239.425 233.01 969.635 328.804-215.83 76.634 349.19 83.279 658.67 77.023" stroke="url(#paint5_linear)"/><path d="M-468.151 1c52.219 0 1217.962 177.994 1145.885 287.38-72.078 109.385 1240.026 233.01 970.106 328.804-215.94 76.634 349.35 83.279 658.99 77.023" stroke="url(#paint6_linear)"/><path d="M-468.151 1c52.219 0 1217.962 177.994 1145.885 287.38-72.078 109.385 1240.026 233.01 970.106 328.804-215.94 76.634 349.35 83.279 658.99 77.023" stroke="url(#paint7_linear)"/><path d="M-468.151 1c52.219 0 1217.962 177.994 1145.885 287.38-72.078 109.385 1240.026 233.01 970.106 328.804-215.94 76.634 349.35 83.279 658.99 77.023" stroke="url(#paint8_linear)"/><path d="M-586.408 1c52.219 0 1217.962 177.994 1145.885 287.38C487.399 397.765 1799.5 521.39 1529.58 617.184c-215.94 76.634 349.36 83.279 659 77.023" stroke="url(#paint9_linear)"/><path d="M-586.408 1c52.219 0 1217.962 177.994 1145.885 287.38C487.399 397.765 1799.5 521.39 1529.58 617.184c-215.94 76.634 349.36 83.279 659 77.023" stroke="url(#paint10_linear)"/><path d="M-586.408 1c52.219 0 1217.962 177.994 1145.885 287.38C487.399 397.765 1799.5 521.39 1529.58 617.184c-215.94 76.634 349.36 83.279 659 77.023" stroke="url(#paint11_linear)"/><path d="M-703.32 1c52.194 0 1217.373 177.994 1145.33 287.38-72.042 109.385 1239.43 233.01 969.63 328.804-215.83 76.634 349.19 83.279 658.68 77.023" stroke="url(#paint12_linear)"/><path d="M-703.32 1c52.194 0 1217.373 177.994 1145.33 287.38-72.042 109.385 1239.43 233.01 969.63 328.804-215.83 76.634 349.19 83.279 658.68 77.023" stroke="url(#paint13_linear)"/><path d="M-703.32 1c52.194 0 1217.373 177.994 1145.33 287.38-72.042 109.385 1239.43 233.01 969.63 328.804-215.83 76.634 349.19 83.279 658.68 77.023" stroke="url(#paint14_linear)"/><path d="M-821.576 1c52.219 0 1217.963 177.994 1145.885 287.38-72.077 109.385 1240.031 233.01 970.101 328.804-215.93 76.634 349.36 83.279 659 77.023" stroke="url(#paint15_linear)"/><path d="M-821.576 1c52.219 0 1217.963 177.994 1145.885 287.38-72.077 109.385 1240.031 233.01 970.101 328.804-215.93 76.634 349.36 83.279 659 77.023" stroke="url(#paint16_linear)"/><path d="M-821.576 1c52.219 0 1217.963 177.994 1145.885 287.38-72.077 109.385 1240.031 233.01 970.101 328.804-215.93 76.634 349.36 83.279 659 77.023" stroke="url(#paint17_linear)"/><path d="M-939.832 1c52.219 0 1217.963 177.994 1145.885 287.38-72.077 109.385 1240.027 233.01 970.107 328.804-215.941 76.634 349.35 83.279 658.99 77.023" stroke="url(#paint18_linear)"/><path d="M-939.832 1c52.219 0 1217.963 177.994 1145.885 287.38-72.077 109.385 1240.027 233.01 970.107 328.804-215.941 76.634 349.35 83.279 658.99 77.023" stroke="url(#paint19_linear)"/><path d="M-939.832 1c52.219 0 1217.963 177.994 1145.885 287.38-72.077 109.385 1240.027 233.01 970.107 328.804-215.941 76.634 349.35 83.279 658.99 77.023" stroke="url(#paint20_linear)"/><path d="M-1056.74 1c52.19 0 1217.369 177.994 1145.3261 287.38C16.5435 397.765 1328.01 521.39 1058.22 617.184c-215.833 76.634 349.19 83.279 658.68 77.023" stroke="url(#paint21_linear)"/><path d="M-1056.74 1c52.19 0 1217.369 177.994 1145.3261 287.38C16.5435 397.765 1328.01 521.39 1058.22 617.184c-215.833 76.634 349.19 83.279 658.68 77.023" stroke="url(#paint22_linear)"/><path d="M-1056.74 1c52.19 0 1217.369 177.994 1145.3261 287.38C16.5435 397.765 1328.01 521.39 1058.22 617.184c-215.833 76.634 349.19 83.279 658.68 77.023" stroke="url(#paint23_linear)"/><path d="M-1175 1C-1122.76 1 43.5525 178.994-28.5599 288.38-100.672 397.765 1212.07 521.39 942.014 617.184c-216.043 76.634 349.526 83.279 659.316 77.023" stroke="url(#paint24_linear)"/><path d="M-1175 1C-1122.76 1 43.5525 178.994-28.5599 288.38-100.672 397.765 1212.07 521.39 942.014 617.184c-216.043 76.634 349.526 83.279 659.316 77.023" stroke="url(#paint25_linear)"/><path d="M-1175 1C-1122.76 1 43.5525 178.994-28.5599 288.38-100.672 397.765 1212.07 521.39 942.014 617.184c-216.043 76.634 349.526 83.279 659.316 77.023" stroke="url(#paint26_linear)"/><defs><linearGradient id="paint0_linear" x1="352.138" y1="92.2623" x2="1951.16" y2="796.531" gradientUnits="userSpaceOnUse"><stop offset=".0522008" stop-color="#fff" stop-opacity=".6"/><stop offset=".5" stop-color="#fff" stop-opacity="0"/></linearGradient><linearGradient id="paint1_linear" x1="352.138" y1="92.2623" x2="1951.16" y2="796.531" gradientUnits="userSpaceOnUse"><stop offset=".0522008" stop-color="#fff" stop-opacity=".6"/><stop offset="1" stop-color="#fff" stop-opacity="0"/></linearGradient><linearGradient id="paint2_linear" x1="352.138" y1="92.2623" x2="1951.16" y2="796.531" gradientUnits="userSpaceOnUse"><stop offset=".0522008" stop-color="#fff" stop-opacity=".6"/><stop offset="1" stop-color="#fff" stop-opacity="0"/></linearGradient><linearGradient id="paint3_linear" x1="236.002" y1="92.2623" x2="1833.98" y2="795.389" gradientUnits="userSpaceOnUse"><stop offset=".0522008" stop-color="#fff" stop-opacity=".6"/><stop offset=".5" stop-color="#fff" stop-opacity="0"/></linearGradient><linearGradient id="paint4_linear" x1="236.002" y1="92.2623" x2="1833.98" y2="795.389" gradientUnits="userSpaceOnUse"><stop offset=".0522008" stop-color="#fff" stop-opacity=".6"/><stop offset="1" stop-color="#fff" stop-opacity="0"/></linearGradient><linearGradient id="paint5_linear" x1="236.002" y1="92.2623" x2="1833.98" y2="795.389" gradientUnits="userSpaceOnUse"><stop offset=".0522008" stop-color="#fff" stop-opacity=".6"/><stop offset="1" stop-color="#fff" stop-opacity="0"/></linearGradient><linearGradient id="paint6_linear" x1="118.03" y1="92.2623" x2="1716.53" y2="795.96" gradientUnits="userSpaceOnUse"><stop offset=".0522008" stop-color="#fff" stop-opacity=".6"/><stop offset=".5" stop-color="#fff" stop-opacity="0"/></linearGradient><linearGradient id="paint7_linear" x1="118.03" y1="92.2623" x2="1716.53" y2="795.96" gradientUnits="userSpaceOnUse"><stop offset=".0522008" stop-color="#fff" stop-opacity=".6"/><stop offset="1" stop-color="#fff" stop-opacity="0"/></linearGradient><linearGradient id="paint8_linear" x1="118.03" y1="92.2623" x2="1716.53" y2="795.96" gradientUnits="userSpaceOnUse"><stop offset=".0522008" stop-color="#fff" stop-opacity=".6"/><stop offset="1" stop-color="#fff" stop-opacity="0"/></linearGradient><linearGradient id="paint9_linear" x1="-.226802" y1="92.2623" x2="1598.28" y2="795.96" gradientUnits="userSpaceOnUse"><stop offset=".0522008" stop-color="#fff" stop-opacity=".6"/><stop offset=".5" stop-color="#fff" stop-opacity="0"/></linearGradient><linearGradient id="paint10_linear" x1="-.226802" y1="92.2623" x2="1598.28" y2="795.96" gradientUnits="userSpaceOnUse"><stop offset=".0522008" stop-color="#fff" stop-opacity=".6"/><stop offset="1" stop-color="#fff" stop-opacity="0"/></linearGradient><linearGradient id="paint11_linear" x1="-.226802" y1="92.2623" x2="1598.28" y2="795.96" gradientUnits="userSpaceOnUse"><stop offset=".0522008" stop-color="#fff" stop-opacity=".6"/><stop offset="1" stop-color="#fff" stop-opacity="0"/></linearGradient><linearGradient id="paint12_linear" x1="-117.422" y1="92.2623" x2="1480.56" y2="795.389" gradientUnits="userSpaceOnUse"><stop offset=".0522008" stop-color="#fff" stop-opacity=".6"/><stop offset=".5" stop-color="#fff" stop-opacity="0"/></linearGradient><linearGradient id="paint13_linear" x1="-117.422" y1="92.2623" x2="1480.56" y2="795.389" gradientUnits="userSpaceOnUse"><stop offset=".0522008" stop-color="#fff" stop-opacity=".6"/><stop offset="1" stop-color="#fff" stop-opacity="0"/></linearGradient><linearGradient id="paint14_linear" x1="-117.422" y1="92.2623" x2="1480.56" y2="795.389" gradientUnits="userSpaceOnUse"><stop offset=".0522008" stop-color="#fff" stop-opacity=".6"/><stop offset="1" stop-color="#fff" stop-opacity="0"/></linearGradient><linearGradient id="paint15_linear" x1="-235.395" y1="92.2623" x2="1363.11" y2="795.96" gradientUnits="userSpaceOnUse"><stop offset=".0522008" stop-color="#fff" stop-opacity=".6"/><stop offset=".5" stop-color="#fff" stop-opacity="0"/></linearGradient><linearGradient id="paint16_linear" x1="-235.395" y1="92.2623" x2="1363.11" y2="795.96" gradientUnits="userSpaceOnUse"><stop offset=".0522008" stop-color="#fff" stop-opacity=".6"/><stop offset="1" stop-color="#fff" stop-opacity="0"/></linearGradient><linearGradient id="paint17_linear" x1="-235.395" y1="92.2623" x2="1363.11" y2="795.96" gradientUnits="userSpaceOnUse"><stop offset=".0522008" stop-color="#fff" stop-opacity=".6"/><stop offset="1" stop-color="#fff" stop-opacity="0"/></linearGradient><linearGradient id="paint18_linear" x1="-353.651" y1="92.2623" x2="1244.85" y2="795.96" gradientUnits="userSpaceOnUse"><stop offset=".0522008" stop-color="#fff" stop-opacity=".6"/><stop offset=".5" stop-color="#fff" stop-opacity="0"/></linearGradient><linearGradient id="paint19_linear" x1="-353.651" y1="92.2623" x2="1244.85" y2="795.96" gradientUnits="userSpaceOnUse"><stop offset=".0522008" stop-color="#fff" stop-opacity=".6"/><stop offset="1" stop-color="#fff" stop-opacity="0"/></linearGradient><linearGradient id="paint20_linear" x1="-353.651" y1="92.2623" x2="1244.85" y2="795.96" gradientUnits="userSpaceOnUse"><stop offset=".0522008" stop-color="#fff" stop-opacity=".6"/><stop offset="1" stop-color="#fff" stop-opacity="0"/></linearGradient><linearGradient id="paint21_linear" x1="-470.847" y1="92.2623" x2="1127.13" y2="795.389" gradientUnits="userSpaceOnUse"><stop offset=".0522008" stop-color="#fff" stop-opacity=".6"/><stop offset=".5" stop-color="#fff" stop-opacity="0"/></linearGradient><linearGradient id="paint22_linear" x1="-470.847" y1="92.2623" x2="1127.13" y2="795.389" gradientUnits="userSpaceOnUse"><stop offset=".0522008" stop-color="#fff" stop-opacity=".6"/><stop offset="1" stop-color="#fff" stop-opacity="0"/></linearGradient><linearGradient id="paint23_linear" x1="-470.847" y1="92.2623" x2="1127.13" y2="795.389" gradientUnits="userSpaceOnUse"><stop offset=".0522008" stop-color="#fff" stop-opacity=".6"/><stop offset="1" stop-color="#fff" stop-opacity="0"/></linearGradient><linearGradient id="paint24_linear" x1="-588.535" y1="92.2623" x2="1010.49" y2="796.531" gradientUnits="userSpaceOnUse"><stop offset=".0522008" stop-color="#fff" stop-opacity=".6"/><stop offset=".5" stop-color="#fff" stop-opacity="0"/></linearGradient><linearGradient id="paint25_linear" x1="-588.535" y1="92.2623" x2="1010.49" y2="796.531" gradientUnits="userSpaceOnUse"><stop offset=".0522008" stop-color="#fff" stop-opacity=".6"/><stop offset="1" stop-color="#fff" stop-opacity="0"/></linearGradient><linearGradient id="paint26_linear" x1="-588.535" y1="92.2623" x2="1010.49" y2="796.531" gradientUnits="userSpaceOnUse"><stop offset=".0522008" stop-color="#fff" stop-opacity=".6"/><stop offset="1" stop-color="#fff" stop-opacity="0"/></linearGradient></defs></svg>