<svg width="1079" height="1055" fill="none" xmlns="http://www.w3.org/2000/svg"><path d="M404.245 1c206.85 33.1667 561.518 193.8 325.396 571S863.496 1050.17 1078 1053.5" stroke="url(#paint0_linear)" stroke-width="2"/><path d="M381.843 1c206.849 33.1667 561.518 193.8 325.396 571s133.855 478.17 348.361 481.5" stroke="url(#paint1_linear)" stroke-width="2"/><path d="M359.44 1c206.85 33.1667 561.518 193.8 325.396 571s133.855 478.17 348.354 481.5" stroke="url(#paint2_linear)" stroke-width="2"/><path d="M337.037 1c206.85 33.1667 561.519 193.8 325.397 571-236.123 377.2 133.855 478.17 348.356 481.5" stroke="url(#paint3_linear)" stroke-width="2"/><path d="M314.635 1c206.85 33.1667 561.519 193.8 325.396 571-236.122 377.2 133.855 478.17 348.359 481.5" stroke="url(#paint4_linear)" stroke-width="2"/><path d="M292.232 1c206.85 33.1667 561.519 193.8 325.397 571-236.123 377.2 133.854 478.17 348.358 481.5" stroke="url(#paint5_linear)" stroke-width="2"/><path d="M269.83 1c206.85 33.1667 561.519 193.8 325.396 571-236.122 377.2 133.855 478.17 348.359 481.5" stroke="url(#paint6_linear)" stroke-width="2"/><path d="M247.428 1c206.849 33.1667 561.518 193.8 325.396 571s133.855 478.17 348.359 481.5" stroke="url(#paint7_linear)" stroke-width="2"/><path d="M225.025 1c206.85 33.1667 561.518 193.8 325.396 571s133.855 478.17 348.359 481.5" stroke="url(#paint8_linear)" stroke-width="2"/><path d="M202.622 1c206.85 33.1667 561.519 193.8 325.397 571-236.123 377.2 133.855 478.17 348.359 481.5" stroke="url(#paint9_linear)" stroke-width="2"/><path d="M180.22 1c206.85 33.1667 561.519 193.8 325.396 571-236.122 377.2 133.855 478.17 348.359 481.5" stroke="url(#paint10_linear)" stroke-width="2"/><path d="M157.817 1c206.85 33.1667 561.519 193.8 325.397 571-236.123 377.2 133.855 478.17 348.358 481.5" stroke="url(#paint11_linear)" stroke-width="2"/><path d="M135.415 1c206.85 33.1667 561.519 193.8 325.396 571-236.122 377.2 133.855 478.17 348.359 481.5" stroke="url(#paint12_linear)" stroke-width="2"/><path d="M113.013 1c206.849 33.1667 561.518 193.8 325.396 571s133.855 478.17 348.359 481.5" stroke="url(#paint13_linear)" stroke-width="2"/><path d="M90.6099 1C297.46 34.1667 652.128 194.8 416.006 572s133.855 478.17 348.359 481.5" stroke="url(#paint14_linear)" stroke-width="2"/><path d="M68.2075 1C275.057 34.1667 629.726 194.8 393.604 572c-236.123 377.2 133.855 478.17 348.359 481.5" stroke="url(#paint15_linear)" stroke-width="2"/><path d="M45.8051 1C252.655 34.1667 607.324 194.8 371.201 572c-236.122 377.2 133.855 478.17 348.359 481.5" stroke="url(#paint16_linear)" stroke-width="2"/><path d="M23.4024 1C230.252 34.1667 584.921 194.8 348.799 572c-236.123 377.2 133.855 478.17 348.358 481.5" stroke="url(#paint17_linear)" stroke-width="2"/><path d="M.999989 1C207.85 34.1667 562.519 194.8 326.396 572c-236.1221 377.2 133.855 478.17 348.359 481.5" stroke="url(#paint18_linear)" stroke-width="2"/><defs><linearGradient id="paint0_linear" x1="741.122" y1="1.00001" x2="1098.13" y2="1288.49" gradientUnits="userSpaceOnUse"><stop stop-color="#FFFCFC"/><stop offset="1" stop-opacity="0"/></linearGradient><linearGradient id="paint1_linear" x1="718.72" y1="1.00001" x2="1075.73" y2="1288.49" gradientUnits="userSpaceOnUse"><stop stop-color="#FFFCFC"/><stop offset="1" stop-opacity="0"/></linearGradient><linearGradient id="paint2_linear" x1="696.317" y1="1.00001" x2="1053.32" y2="1288.49" gradientUnits="userSpaceOnUse"><stop stop-color="#FFFCFC"/><stop offset="1" stop-opacity="0"/></linearGradient><linearGradient id="paint3_linear" x1="673.915" y1="1.00001" x2="1030.92" y2="1288.49" gradientUnits="userSpaceOnUse"><stop stop-color="#FFFCFC"/><stop offset="1" stop-opacity="0"/></linearGradient><linearGradient id="paint4_linear" x1="651.513" y1="1.00001" x2="1008.52" y2="1288.49" gradientUnits="userSpaceOnUse"><stop stop-color="#FFFCFC"/><stop offset="1" stop-opacity="0"/></linearGradient><linearGradient id="paint5_linear" x1="629.11" y1="1.00001" x2="986.116" y2="1288.49" gradientUnits="userSpaceOnUse"><stop stop-color="#FFFCFC"/><stop offset="1" stop-opacity="0"/></linearGradient><linearGradient id="paint6_linear" x1="606.707" y1="1.00001" x2="963.714" y2="1288.49" gradientUnits="userSpaceOnUse"><stop stop-color="#FFFCFC"/><stop offset="1" stop-opacity="0"/></linearGradient><linearGradient id="paint7_linear" x1="584.305" y1="1.00001" x2="941.311" y2="1288.49" gradientUnits="userSpaceOnUse"><stop stop-color="#FFFCFC"/><stop offset="1" stop-opacity="0"/></linearGradient><linearGradient id="paint8_linear" x1="561.902" y1="1.00001" x2="918.909" y2="1288.49" gradientUnits="userSpaceOnUse"><stop stop-color="#FFFCFC"/><stop offset="1" stop-opacity="0"/></linearGradient><linearGradient id="paint9_linear" x1="539.5" y1="1.00001" x2="896.506" y2="1288.49" gradientUnits="userSpaceOnUse"><stop stop-color="#FFFCFC"/><stop offset="1" stop-opacity="0"/></linearGradient><linearGradient id="paint10_linear" x1="517.098" y1="1.00001" x2="874.104" y2="1288.49" gradientUnits="userSpaceOnUse"><stop stop-color="#FFFCFC"/><stop offset="1" stop-opacity="0"/></linearGradient><linearGradient id="paint11_linear" x1="494.695" y1="1.00001" x2="851.701" y2="1288.49" gradientUnits="userSpaceOnUse"><stop stop-color="#FFFCFC"/><stop offset="1" stop-opacity="0"/></linearGradient><linearGradient id="paint12_linear" x1="472.292" y1="1.00001" x2="829.299" y2="1288.49" gradientUnits="userSpaceOnUse"><stop stop-color="#FFFCFC"/><stop offset="1" stop-opacity="0"/></linearGradient><linearGradient id="paint13_linear" x1="449.89" y1="1.00001" x2="806.897" y2="1288.49" gradientUnits="userSpaceOnUse"><stop stop-color="#FFFCFC"/><stop offset="1" stop-opacity="0"/></linearGradient><linearGradient id="paint14_linear" x1="427.487" y1="1.00001" x2="784.494" y2="1288.49" gradientUnits="userSpaceOnUse"><stop stop-color="#FFFCFC"/><stop offset="1" stop-opacity="0"/></linearGradient><linearGradient id="paint15_linear" x1="405.085" y1="1.00001" x2="762.091" y2="1288.49" gradientUnits="userSpaceOnUse"><stop stop-color="#FFFCFC"/><stop offset="1" stop-opacity="0"/></linearGradient><linearGradient id="paint16_linear" x1="382.683" y1="1.00001" x2="739.689" y2="1288.49" gradientUnits="userSpaceOnUse"><stop stop-color="#FFFCFC"/><stop offset="1" stop-opacity="0"/></linearGradient><linearGradient id="paint17_linear" x1="360.28" y1="1.00001" x2="717.286" y2="1288.49" gradientUnits="userSpaceOnUse"><stop stop-color="#FFFCFC"/><stop offset="1" stop-opacity="0"/></linearGradient><linearGradient id="paint18_linear" x1="337.878" y1="1.00001" x2="694.884" y2="1288.49" gradientUnits="userSpaceOnUse"><stop stop-color="#FFFCFC"/><stop offset="1" stop-opacity="0"/></linearGradient></defs></svg>