<svg width="1920" height="689" fill="none" xmlns="http://www.w3.org/2000/svg"><path d="M-1938 582c231.71 79.667 740.34 191.2 921.21 0C-790.702 343 321.89 268 846.454 218 1371.02 168 1866.83 57.5 1866.83 0" stroke="url(#paint0_linear)"/><path d="M-1886.44 582c231.71 79.667 740.34 191.2 921.214 0 226.088-239 1338.68-314 1863.244-364C1422.58 168 1918.39 57.5 1918.39 0" stroke="url(#paint1_linear)"/><path d="M-1834.87 582c231.71 79.667 740.34 191.2 921.208 0 226.088-239 1338.68-314 1863.244-364C1474.15 168 1969.95 57.5 1969.95 0" stroke="url(#paint2_linear)"/><path d="M-1783.31 582c231.71 79.667 740.34 191.2 921.212 0C-636.01 343 476.582 268 1001.15 218 1525.71 168 2021.52 57.5 2021.52 0" stroke="url(#paint3_linear)"/><path d="M-1731.74 582c231.7 79.667 740.335 191.2 921.206 0C-584.446 343 528.145 268 1052.71 218 1577.27 168 2073.08 57.5 2073.08 0" stroke="url(#paint4_linear)"/><path d="M-1680.18 582c231.71 79.667 740.339 191.2 921.21 0 226.088-239 1338.679-314 1863.24-364C1628.84 168 2124.64 57.5 2124.64 0" stroke="url(#paint5_linear)"/><path d="M-1628.62 582c231.71 79.667 740.343 191.2 921.214 0C-481.318 343 631.273 268 1155.84 218 1680.4 168 2176.21 57.5 2176.21 0" stroke="url(#paint6_linear)"/><path d="M-1577.05 582c231.71 79.667 740.337 191.2 921.208 0C-429.754 343 682.837 268 1207.4 218 1731.97 168 2227.77 57.5 2227.77 0" stroke="url(#paint7_linear)"/><path d="M-1525.49 582c231.71 79.667 740.341 191.2 921.212 0C-378.19 343 734.401 268 1258.97 218 1783.53 168 2279.34 57.5 2279.34 0" stroke="url(#paint8_linear)"/><path d="M-1473.92 582c231.7 79.667 740.336 191.2 921.206 0 226.088-239 1338.68-314 1863.244-364C1835.09 168 2330.9 57.5 2330.9 0" stroke="url(#paint9_linear)"/><path d="M-1422.36 582c231.71 79.667 740.339 191.2 921.21 0 226.088-239 1338.679-314 1863.24-364C1886.66 168 2382.46 57.5 2382.46 0" stroke="url(#paint10_linear)"/><path d="M-1370.8 582c231.71 79.667 740.343 191.2 921.213 0 226.088-239 1338.68-314 1863.247-364C1938.22 168 2434.03 57.5 2434.03 0" stroke="url(#paint11_linear)"/><path d="M-1319.23 582c231.7 79.667 740.337 191.2 921.208 0C-171.934 343 940.657 268 1465.22 218 1989.79 168 2485.59 57.5 2485.59 0" stroke="url(#paint12_linear)"/><path d="M-1267.67 582c231.71 79.667 740.341 191.2 921.211 0C-120.37 343 992.221 268 1516.79 218 2041.35 168 2537.16 57.5 2537.16 0" stroke="url(#paint13_linear)"/><path d="M-1216.1 582c231.703 79.667 740.335 191.2 921.205 0C-68.8064 343 1043.79 268 1568.35 218S2588.72 57.5 2588.72 0" stroke="url(#paint14_linear)"/><path d="M-1164.54 582c231.707 79.667 740.339 191.2 921.209 0C-17.2425 343 1095.35 268 1619.91 218 2144.48 168 2640.28 57.5 2640.28 0" stroke="url(#paint15_linear)"/><path d="M-1112.98 582c231.711 79.667 740.343 191.2 921.213 0C34.3215 343 1146.91 268 1671.48 218 2196.04 168 2691.85 57.5 2691.85 0" stroke="url(#paint16_linear)"/><path d="M-1061.41 582c231.704 79.667 740.336 191.2 921.207 0C85.885 343 1198.48 268 1723.04 218S2743.41 57.5 2743.41 0" stroke="url(#paint17_linear)"/><path d="M-1009.85 582c231.709 79.667 740.341 191.2 921.2113 0C137.449 343 1250.04 268 1774.61 218 2299.17 168 2794.98 57.5 2794.98 0" stroke="url(#paint18_linear)"/><path d="M-958.285 582c231.708 79.667 740.34 191.2 921.2103 0C189.013 343 1301.6 268 1826.17 218 2350.73 168 2846.54 57.5 2846.54 0" stroke="url(#paint19_linear)"/><path d="M-906.721 582c231.708 79.667 740.34 191.2 921.2102 0C240.577 343 1353.17 268 1877.73 218 2402.3 168 2898.1 57.5 2898.1 0" stroke="url(#paint20_linear)"/><path d="M-855.157 582c231.708 79.667 740.34 191.2 921.2102 0C292.141 343 1404.73 268 1929.3 218 2453.86 168 2949.67 57.5 2949.67 0" stroke="url(#paint21_linear)"/><path d="M-803.593 582c231.708 79.667 740.3397 191.2 921.21 0C343.705 343 1456.3 268 1980.86 218 2505.43 168 3001.23 57.5 3001.23 0" stroke="url(#paint22_linear)"/><path d="M-752.029 582c231.707 79.667 740.3392 191.2 921.21 0C395.269 343 1507.86 268 2032.42 218 2556.99 168 3052.8 57.5 3052.8 0" stroke="url(#paint23_linear)"/><path d="M-700.465 582c231.707 79.667 740.3396 191.2 921.21 0C446.833 343 1559.42 268 2083.99 218 2608.55 168 3104.36 57.5 3104.36 0" stroke="url(#paint24_linear)"/><path d="M-648.901 582c231.707 79.667 740.3391 191.2 921.21 0C498.397 343 1610.99 268 2135.55 218 2660.12 168 3155.92 57.5 3155.92 0" stroke="url(#paint25_linear)"/><path d="M-597.337 582c231.707 79.667 740.34 191.2 921.21 0C549.961 343 1662.55 268 2187.12 218 2711.68 168 3207.49 57.5 3207.49 0" stroke="url(#paint26_linear)"/><path d="M-545.773 582c231.707 79.667 740.34 191.2 921.21 0C601.525 343 1714.12 268 2238.68 218S3259.05 57.5 3259.05 0" stroke="url(#paint27_linear)"/><path d="M-494.209 582c231.707 79.667 740.339 191.2 921.21 0C653.089 343 1765.68 268 2290.24 218 2814.81 168 3310.62 57.5 3310.62 0" stroke="url(#paint28_linear)"/><path d="M-442.645 582c231.707 79.667 740.339 191.2 921.21 0C704.653 343 1817.24 268 2341.81 218 2866.37 168 3362.18 57.5 3362.18 0" stroke="url(#paint29_linear)"/><path d="M-391.081 582c231.707 79.667 740.339 191.2 921.21 0C756.217 343 1868.81 268 2393.37 218 2917.94 168 3413.74 57.5 3413.74 0" stroke="url(#paint30_linear)"/><path d="M-339.518 582c231.708 79.667 740.34 191.2 921.21 0C807.78 343 1920.37 268 2444.94 218 2969.5 168 3465.31 57.5 3465.31 0" stroke="url(#paint31_linear)"/><path d="M-287.953 582c231.7072 79.667 740.339 191.2 921.21 0C859.345 343 1971.94 268 2496.5 218S3516.87 57.5 3516.87 0" stroke="url(#paint32_linear)"/><path d="M-236.389 582c231.70712 79.667 740.339 191.2 921.21 0C910.909 343 2023.5 268 2548.06 218 3072.63 168 3568.44 57.5 3568.44 0" stroke="url(#paint33_linear)"/><path d="M-184.825 582c231.7071 79.667 740.339 191.2 921.21 0C962.473 343 2075.06 268 2599.63 218 3124.19 168 3620 57.5 3620 0" stroke="url(#paint34_linear)"/><defs><linearGradient id="paint0_linear" x1="-35.5874" y1="0" x2="-35.5874" y2="687.571" gradientUnits="userSpaceOnUse"><stop stop-color="#fff"/><stop offset=".708333" stop-color="#fff" stop-opacity="0"/></linearGradient><linearGradient id="paint1_linear" x1="15.9766" y1="0" x2="15.9766" y2="687.571" gradientUnits="userSpaceOnUse"><stop stop-color="#fff"/><stop offset=".708333" stop-color="#fff" stop-opacity="0"/></linearGradient><linearGradient id="paint2_linear" x1="67.5405" y1="0" x2="67.5405" y2="687.571" gradientUnits="userSpaceOnUse"><stop stop-color="#fff"/><stop offset=".708333" stop-color="#fff" stop-opacity="0"/></linearGradient><linearGradient id="paint3_linear" x1="119.105" y1="0" x2="119.105" y2="687.571" gradientUnits="userSpaceOnUse"><stop stop-color="#fff"/><stop offset=".708333" stop-color="#fff" stop-opacity="0"/></linearGradient><linearGradient id="paint4_linear" x1="170.668" y1="0" x2="170.668" y2="687.571" gradientUnits="userSpaceOnUse"><stop stop-color="#fff"/><stop offset=".708333" stop-color="#fff" stop-opacity="0"/></linearGradient><linearGradient id="paint5_linear" x1="222.232" y1="0" x2="222.232" y2="687.571" gradientUnits="userSpaceOnUse"><stop stop-color="#fff"/><stop offset=".708333" stop-color="#fff" stop-opacity="0"/></linearGradient><linearGradient id="paint6_linear" x1="273.796" y1="0" x2="273.796" y2="687.571" gradientUnits="userSpaceOnUse"><stop stop-color="#fff"/><stop offset=".708333" stop-color="#fff" stop-opacity="0"/></linearGradient><linearGradient id="paint7_linear" x1="325.36" y1="0" x2="325.36" y2="687.571" gradientUnits="userSpaceOnUse"><stop stop-color="#fff"/><stop offset=".708333" stop-color="#fff" stop-opacity="0"/></linearGradient><linearGradient id="paint8_linear" x1="376.924" y1="0" x2="376.924" y2="687.571" gradientUnits="userSpaceOnUse"><stop stop-color="#fff"/><stop offset=".708333" stop-color="#fff" stop-opacity="0"/></linearGradient><linearGradient id="paint9_linear" x1="428.489" y1="0" x2="428.489" y2="687.571" gradientUnits="userSpaceOnUse"><stop stop-color="#fff"/><stop offset=".708333" stop-color="#fff" stop-opacity="0"/></linearGradient><linearGradient id="paint10_linear" x1="480.052" y1="0" x2="480.052" y2="687.571" gradientUnits="userSpaceOnUse"><stop stop-color="#fff"/><stop offset=".708333" stop-color="#fff" stop-opacity="0"/></linearGradient><linearGradient id="paint11_linear" x1="531.616" y1="0" x2="531.616" y2="687.571" gradientUnits="userSpaceOnUse"><stop stop-color="#fff"/><stop offset=".708333" stop-color="#fff" stop-opacity="0"/></linearGradient><linearGradient id="paint12_linear" x1="583.18" y1="0" x2="583.18" y2="687.571" gradientUnits="userSpaceOnUse"><stop stop-color="#fff"/><stop offset=".708333" stop-color="#fff" stop-opacity="0"/></linearGradient><linearGradient id="paint13_linear" x1="634.744" y1="0" x2="634.744" y2="687.571" gradientUnits="userSpaceOnUse"><stop stop-color="#fff"/><stop offset=".708333" stop-color="#fff" stop-opacity="0"/></linearGradient><linearGradient id="paint14_linear" x1="686.308" y1="0" x2="686.308" y2="687.571" gradientUnits="userSpaceOnUse"><stop stop-color="#fff"/><stop offset=".708333" stop-color="#fff" stop-opacity="0"/></linearGradient><linearGradient id="paint15_linear" x1="737.872" y1="0" x2="737.872" y2="687.571" gradientUnits="userSpaceOnUse"><stop stop-color="#fff"/><stop offset=".708333" stop-color="#fff" stop-opacity="0"/></linearGradient><linearGradient id="paint16_linear" x1="789.436" y1="0" x2="789.436" y2="687.571" gradientUnits="userSpaceOnUse"><stop stop-color="#fff"/><stop offset=".708333" stop-color="#fff" stop-opacity="0"/></linearGradient><linearGradient id="paint17_linear" x1="841" y1="0" x2="841" y2="687.571" gradientUnits="userSpaceOnUse"><stop stop-color="#fff"/><stop offset=".708333" stop-color="#fff" stop-opacity="0"/></linearGradient><linearGradient id="paint18_linear" x1="892.564" y1="0" x2="892.564" y2="687.571" gradientUnits="userSpaceOnUse"><stop stop-color="#fff"/><stop offset=".708333" stop-color="#fff" stop-opacity="0"/></linearGradient><linearGradient id="paint19_linear" x1="944.128" y1="0" x2="944.128" y2="687.571" gradientUnits="userSpaceOnUse"><stop stop-color="#fff"/><stop offset=".708333" stop-color="#fff" stop-opacity="0"/></linearGradient><linearGradient id="paint20_linear" x1="995.692" y1="0" x2="995.692" y2="687.571" gradientUnits="userSpaceOnUse"><stop stop-color="#fff"/><stop offset=".708333" stop-color="#fff" stop-opacity="0"/></linearGradient><linearGradient id="paint21_linear" x1="1047.26" y1="0" x2="1047.26" y2="687.571" gradientUnits="userSpaceOnUse"><stop stop-color="#fff"/><stop offset=".708333" stop-color="#fff" stop-opacity="0"/></linearGradient><linearGradient id="paint22_linear" x1="1098.82" y1="0" x2="1098.82" y2="687.571" gradientUnits="userSpaceOnUse"><stop stop-color="#fff"/><stop offset=".708333" stop-color="#fff" stop-opacity="0"/></linearGradient><linearGradient id="paint23_linear" x1="1150.38" y1="0" x2="1150.38" y2="687.571" gradientUnits="userSpaceOnUse"><stop stop-color="#fff"/><stop offset=".708333" stop-color="#fff" stop-opacity="0"/></linearGradient><linearGradient id="paint24_linear" x1="1201.95" y1="0" x2="1201.95" y2="687.571" gradientUnits="userSpaceOnUse"><stop stop-color="#fff"/><stop offset=".708333" stop-color="#fff" stop-opacity="0"/></linearGradient><linearGradient id="paint25_linear" x1="1253.51" y1="0" x2="1253.51" y2="687.571" gradientUnits="userSpaceOnUse"><stop stop-color="#fff"/><stop offset=".708333" stop-color="#fff" stop-opacity="0"/></linearGradient><linearGradient id="paint26_linear" x1="1305.08" y1="0" x2="1305.08" y2="687.571" gradientUnits="userSpaceOnUse"><stop stop-color="#fff"/><stop offset=".708333" stop-color="#fff" stop-opacity="0"/></linearGradient><linearGradient id="paint27_linear" x1="1356.64" y1="0" x2="1356.64" y2="687.571" gradientUnits="userSpaceOnUse"><stop stop-color="#fff"/><stop offset=".708333" stop-color="#fff" stop-opacity="0"/></linearGradient><linearGradient id="paint28_linear" x1="1408.2" y1="0" x2="1408.2" y2="687.571" gradientUnits="userSpaceOnUse"><stop stop-color="#fff"/><stop offset=".708333" stop-color="#fff" stop-opacity="0"/></linearGradient><linearGradient id="paint29_linear" x1="1459.77" y1="0" x2="1459.77" y2="687.571" gradientUnits="userSpaceOnUse"><stop stop-color="#fff"/><stop offset=".708333" stop-color="#fff" stop-opacity="0"/></linearGradient><linearGradient id="paint30_linear" x1="1511.33" y1="0" x2="1511.33" y2="687.571" gradientUnits="userSpaceOnUse"><stop stop-color="#fff"/><stop offset=".708333" stop-color="#fff" stop-opacity="0"/></linearGradient><linearGradient id="paint31_linear" x1="1562.9" y1="0" x2="1562.9" y2="687.571" gradientUnits="userSpaceOnUse"><stop stop-color="#fff"/><stop offset=".708333" stop-color="#fff" stop-opacity="0"/></linearGradient><linearGradient id="paint32_linear" x1="1614.46" y1="0" x2="1614.46" y2="687.571" gradientUnits="userSpaceOnUse"><stop stop-color="#fff"/><stop offset=".708333" stop-color="#fff" stop-opacity="0"/></linearGradient><linearGradient id="paint33_linear" x1="1666.02" y1="0" x2="1666.02" y2="687.571" gradientUnits="userSpaceOnUse"><stop stop-color="#fff"/><stop offset=".708333" stop-color="#fff" stop-opacity="0"/></linearGradient><linearGradient id="paint34_linear" x1="1717.59" y1="0" x2="1717.59" y2="687.571" gradientUnits="userSpaceOnUse"><stop stop-color="#fff"/><stop offset=".708333" stop-color="#fff" stop-opacity="0"/></linearGradient></defs></svg>