<svg width="1920" height="1439" fill="none" xmlns="http://www.w3.org/2000/svg"><path d="M4 460.5c96.333-40.833 323.2-89.1 460 44.5 171 167 113.5 988.5 480 793.5s952.5-635 891.5-793.5c-48.8-126.8 63.67-210.167 126-236" stroke="#fff" stroke-opacity=".6"/><path d="M4 326.5c96.333-40.833 323.2-89.1 460 44.5 171 167 113.5 988.5 480 793.5s952.5-635 891.5-793.5c-48.8-126.8 63.67-210.167 126-236" stroke="#fff" stroke-opacity=".6"/><path d="M4 192.5c96.333-40.833 323.2-89.1 460 44.5 171 167 113.5 988.5 480 793.5s952.5-635 891.5-793.5c-48.8-126.8 63.67-210.1667 126-236" stroke="#fff" stroke-opacity=".6"/><path d="M-16 530.5c96.3333-40.833 323.2-89.1 460 44.5 171 167 113.5 988.5 480 793.5s952.5-635 891.5-793.5c-48.8-126.8 63.67-210.167 126-236" stroke="#fff" stroke-opacity=".6"/><path d="M-16 396.5c96.3333-40.833 323.2-89.1 460 44.5 171 167 113.5 988.5 480 793.5s952.5-635 891.5-793.5c-48.8-126.8 63.67-210.167 126-236" stroke="#fff" stroke-opacity=".6"/><path d="M-16 262.5c96.3333-40.833 323.2-89.1 460 44.5 171 167 113.5 988.5 480 793.5s952.5-635 891.5-793.5c-48.8-126.8 63.67-210.1667 126-236" stroke="#fff" stroke-opacity=".6"/><path d="M4 500.5c96.333-40.833 323.2-89.1 460 44.5 171 167 113.5 988.5 480 793.5s952.5-635 891.5-793.5c-48.8-126.8 63.67-210.167 126-236" stroke="#fff" stroke-opacity=".6"/><path d="M4 366.5c96.333-40.833 323.2-89.1 460 44.5 171 167 113.5 988.5 480 793.5s952.5-635 891.5-793.5c-48.8-126.8 63.67-210.167 126-236" stroke="#fff" stroke-opacity=".6"/><path d="M4 232.5c96.333-40.833 323.2-89.1 460 44.5 171 167 113.5 988.5 480 793.5s952.5-635 891.5-793.5c-48.8-126.8 63.67-210.1667 126-236" stroke="#fff" stroke-opacity=".6"/><path d="M-16 570.5c96.3333-40.833 323.2-89.1 460 44.5 171 167 113.5 988.5 480 793.5s952.5-635 891.5-793.5c-48.8-126.8 63.67-210.167 126-236" stroke="#fff" stroke-opacity=".6"/><path d="M-16 436.5c96.3333-40.833 323.2-89.1 460 44.5 171 167 113.5 988.5 480 793.5s952.5-635 891.5-793.5c-48.8-126.8 63.67-210.167 126-236" stroke="#fff" stroke-opacity=".6"/><path d="M-16 302.5c96.3333-40.833 323.2-89.1 460 44.5 171 167 113.5 988.5 480 793.5s952.5-635 891.5-793.5c-48.8-126.8 63.67-210.167 126-236" stroke="#fff" stroke-opacity=".6"/></svg>