<svg width="219" height="91" fill="none" xmlns="http://www.w3.org/2000/svg"><path d="M67 31.7805v37.1774c0 1.0398-.5383 2.0054-1.4228 2.552L38.9896 87.9423c-2.0734 1.2815-4.7287-.3137-4.5709-2.7461l3.4772-53.6099c.1024-1.5781 1.4122-2.8058 2.9937-2.8058H64c1.6569 0 3 1.3432 3 3z" fill="#fff"/><g filter="url(#filter0_d)"><path d="M7 59V22.1599c0-1.1406.6468-2.1825 1.66898-2.6885L43.2511 2.35101c2.0899-1.03463 4.5094.60634 4.3212 2.93071L43.2029 59.2421C43.0768 60.8 41.7757 62 40.2127 62H10c-1.65685 0-3-1.3431-3-3z" fill="#949393"/></g><path d="M78.6992 47.6602V54h-2.9648V36.9375h6.5273c1.9063 0 3.418.4961 4.5352 1.4883 1.125.9922 1.6875 2.3047 1.6875 3.9375 0 1.6719-.5508 2.9726-1.6524 3.9023-1.0937.9297-2.6289 1.3946-4.6054 1.3946h-3.5274zm0-2.379h3.5625c1.0547 0 1.8594-.246 2.4141-.7382.5547-.5.832-1.2188.832-2.1563 0-.9219-.2812-1.6562-.8437-2.2031-.5625-.5547-1.336-.8398-2.3203-.8555h-3.6446v5.9531zm18.75-1.3593c-.375-.0625-.7617-.0938-1.1601-.0938-1.3047 0-2.1836.5-2.6368 1.5V54h-2.8476V41.3203h2.7187l.0704 1.418c.6874-1.1016 1.6406-1.6524 2.8593-1.6524.4063 0 .7422.0547 1.0078.1641l-.0117 2.6719zm.8438 3.6211c0-1.2422.2461-2.3594.7382-3.3516.4922-1 1.1838-1.7656 2.0738-2.2969.891-.539 1.915-.8086 3.071-.8086 1.711 0 3.097.5508 4.16 1.6524 1.07 1.1015 1.648 2.5625 1.734 4.3828l.012.668c0 1.25-.242 2.3671-.727 3.3515-.476.9844-1.164 1.7461-2.062 2.2852-.891.539-1.922.8086-3.094.8086-1.789 0-3.222-.5938-4.3006-1.7813-1.0703-1.1953-1.6054-2.7851-1.6054-4.7695v-.1406zm2.848.2461c0 1.3047.269 2.3281.808 3.0703.539.7344 1.289 1.1015 2.25 1.1015.961 0 1.707-.375 2.239-1.125.539-.75.808-1.8476.808-3.2929 0-1.2813-.277-2.2969-.832-3.0469-.547-.75-1.293-1.125-2.238-1.125-.93 0-1.668.3711-2.215 1.1133-.547.7344-.82 1.8359-.82 3.3047zm22.453 0c0 1.9609-.446 3.5273-1.336 4.6992-.891 1.164-2.086 1.7461-3.586 1.7461-1.391 0-2.504-.4571-3.34-1.3711v6.0117h-2.848V41.3203h2.625l.118 1.2891c.835-1.0156 1.972-1.5235 3.41-1.5235 1.547 0 2.758.5782 3.633 1.7344.882 1.1485 1.324 2.7461 1.324 4.793v.1758zm-2.836-.2461c0-1.2657-.254-2.2696-.762-3.0118-.5-.7421-1.219-1.1132-2.156-1.1132-1.164 0-2 .4804-2.508 1.4414v5.625c.516.9844 1.359 1.4765 2.531 1.4765.907 0 1.614-.3632 2.121-1.0898.516-.7344.774-1.8438.774-3.3281zm12.363 3.0117c0-.5078-.211-.8945-.633-1.1602-.414-.2656-1.105-.5-2.074-.7031-.969-.2031-1.777-.4609-2.426-.7734-1.422-.6875-2.133-1.6836-2.133-2.9883 0-1.0938.461-2.0078 1.383-2.7422.922-.7344 2.094-1.1016 3.516-1.1016 1.516 0 2.738.375 3.668 1.125.937.75 1.406 1.7227 1.406 2.918h-2.848c0-.5469-.203-1-.609-1.3594-.406-.3672-.945-.5507-1.617-.5507-.625 0-1.137.1445-1.535.4335-.391.2891-.586.6758-.586 1.1602 0 .4375.183.7773.551 1.0195.367.2422 1.109.4883 2.226.7383 1.117.2422 1.992.5352 2.625.8789.641.336 1.113.7422 1.418 1.2188.313.4765.469 1.0547.469 1.7343 0 1.1407-.473 2.0665-1.418 2.7774-.945.7031-2.184 1.0547-3.715 1.0547-1.039 0-1.965-.1875-2.777-.5625-.813-.375-1.446-.8907-1.899-1.5469-.453-.6562-.679-1.3633-.679-2.1211h2.765c.039.6719.293 1.1914.762 1.5586.469.3594 1.09.5391 1.863.5391.75 0 1.321-.1407 1.711-.4219.391-.2891.586-.6641.586-1.125zm16.441-3.9258l-1.933 2.0508V54h-2.965V36.9375h2.965v8.0039l1.641-2.0273 4.992-5.9766h3.586l-6.34 7.5586L158.211 54h-3.516l-5.133-7.3711zm15.247 7.6055c-1.805 0-3.27-.5664-4.395-1.6992-1.117-1.1407-1.676-2.6563-1.676-4.5469v-.3516c0-1.2656.242-2.3945.727-3.3867.492-1 1.18-1.7773 2.062-2.332.883-.5547 1.868-.8321 2.953-.8321 1.727 0 3.059.5508 3.997 1.6524.945 1.1015 1.418 2.6601 1.418 4.6758v1.1484h-8.286c.086 1.0469.434 1.875 1.043 2.4844.618.6093 1.391.914 2.321.914 1.304 0 2.367-.5273 3.187-1.582l1.535 1.4649c-.507.7578-1.187 1.3476-2.039 1.7695-.844.414-1.793.6211-2.847.6211zm-.34-10.8633c-.781 0-1.414.2734-1.899.8203-.476.5469-.781 1.3086-.914 2.2852h5.426v-.211c-.062-.9531-.316-1.6718-.762-2.1562-.445-.4922-1.062-.7383-1.851-.7383zm13.23 10.8633c-1.804 0-3.269-.5664-4.394-1.6992-1.117-1.1407-1.676-2.6563-1.676-4.5469v-.3516c0-1.2656.242-2.3945.726-3.3867.493-1 1.18-1.7773 2.063-2.332.883-.5547 1.867-.8321 2.953-.8321 1.727 0 3.059.5508 3.996 1.6524.945 1.1015 1.418 2.6601 1.418 4.6758v1.1484H174.5c.086 1.0469.434 1.875 1.043 2.4844.617.6093 1.391.914 2.32.914 1.305 0 2.367-.5273 3.188-1.582l1.535 1.4649c-.508.7578-1.188 1.3476-2.039 1.7695-.844.414-1.793.6211-2.848.6211zm-.34-10.8633c-.781 0-1.414.2734-1.898.8203-.477.5469-.781 1.3086-.914 2.2852h5.426v-.211c-.063-.9531-.317-1.6718-.762-2.1562-.445-.4922-1.063-.7383-1.852-.7383zm18.75 4.418c0 1.9609-.445 3.5273-1.336 4.6992-.89 1.164-2.085 1.7461-3.585 1.7461-1.391 0-2.504-.4571-3.34-1.3711v6.0117H185V41.3203h2.625l.117 1.2891c.836-1.0156 1.973-1.5235 3.41-1.5235 1.547 0 2.758.5782 3.633 1.7344.883 1.1485 1.324 2.7461 1.324 4.793v.1758zm-2.836-.2461c0-1.2657-.253-2.2696-.761-3.0118-.5-.7421-1.219-1.1132-2.157-1.1132-1.164 0-2 .4804-2.507 1.4414v5.625c.515.9844 1.359 1.4765 2.531 1.4765.906 0 1.613-.3632 2.121-1.0898.516-.7344.773-1.8438.773-3.3281zm10.84 6.6914c-1.804 0-3.269-.5664-4.394-1.6992-1.117-1.1407-1.676-2.6563-1.676-4.5469v-.3516c0-1.2656.242-2.3945.727-3.3867.492-1 1.179-1.7773 2.062-2.332.883-.5547 1.867-.8321 2.953-.8321 1.727 0 3.059.5508 3.996 1.6524.946 1.1015 1.418 2.6601 1.418 4.6758v1.1484h-8.285c.086 1.0469.434 1.875 1.043 2.4844.617.6093 1.391.914 2.32.914 1.305 0 2.368-.5273 3.188-1.582L209 51.8438c-.508.7578-1.188 1.3476-2.039 1.7695-.844.414-1.793.6211-2.848.6211zm-.34-10.8633c-.781 0-1.414.2734-1.898.8203-.477.5469-.781 1.3086-.914 2.2852h5.426v-.211c-.063-.9531-.317-1.6718-.762-2.1562-.445-.4922-1.063-.7383-1.852-.7383zm14.286.5508c-.375-.0625-.762-.0938-1.161-.0938-1.304 0-2.183.5-2.636 1.5V54h-2.848V41.3203h2.719l.07 1.418c.688-1.1016 1.641-1.6524 2.859-1.6524.407 0 .743.0547 1.008.1641l-.011 2.6719z" fill="#fff"/><defs><filter id="filter0_d" x="0" y=".034668" width="66.5826" height="85.9653" filterUnits="userSpaceOnUse" color-interpolation-filters="sRGB"><feFlood flood-opacity="0" result="BackgroundImageFix"/><feColorMatrix in="SourceAlpha" values="0 0 0 0 0 0 0 0 0 0 0 0 0 0 0 0 0 0 127 0"/><feOffset dx="6" dy="11"/><feGaussianBlur stdDeviation="6.5"/><feColorMatrix values="0 0 0 0 0 0 0 0 0 0 0 0 0 0 0 0 0 0 0.15 0"/><feBlend in2="BackgroundImageFix" result="effect1_dropShadow"/><feBlend in="SourceGraphic" in2="effect1_dropShadow" result="shape"/></filter></defs></svg>