<svg width="29" height="24" fill="none" xmlns="http://www.w3.org/2000/svg"><path d="M22.2088 23.9999c-.2795-.0006-.5582-.0268-.8312-.0781-5.1981-.9189-9.987-3.0733-13.81545-6.2154-3.74673-3.149-6.3453-7.1583-7.4812816-11.54292-.1339471-.54645-.1010712-1.11317.0954646-1.64562.196536-.53245.550118-1.01272 1.026727-1.39461L4.52807.38847c.16984-.137245.37163-.242345.5922-.3084396.22058-.0660946.45499-.0916985.68794-.07514071.24153.02153231.47461.08801971.68284.19478631.20824.106767.38658.251221.52247.423204l4.15628 5.24936c.1559.20369.2311.44474.2146.6877-.0164.24296-.1237.47498-.306.66194l-2.08649 2.131c.83096 1.57162 2.00779 2.99202 3.46629 4.18382 1.4492 1.2352 3.162 2.2214 5.0457 2.9053l2.5852-1.7545c.2172-.1467.4814-.2334.7576-.2486.2761-.0152.5512.0418.7886.1633l6.2759 3.4665c.2154.1099.3989.26.5367.439.1379.1791.2265.3825.2593.5951.0328.2125.0089.4286-.07.6321-.0788.2035-.2105.3891-.3851.5429l-3.2419 2.7419c-.3683.3131-.8054.5609-1.2861.7292-.4808.1682-.9958.2535-1.5153.251zM5.67521 1.41135L2.35019 4.14613c-.26812.21349-.46659.48294-.5759.78185-.10931.29892-.1257.61699-.04754.92295C2.78304 9.96528 5.21113 13.7302 8.71759 16.6906c3.60281 2.9561 8.10941 4.9826 13.00081 5.8461.3702.0661.7539.0527 1.1166-.039.3627-.0918.6931-.259.9615-.4867l3.2419-2.7419-6.0598-3.3456-2.7764 1.8894c-.1063.0719-.2315.1205-.3648.1416-.1333.021-.2706.0139-.4-.0208-2.3053-.7258-4.3944-1.878-6.118-3.3741-1.78273-1.4226-3.16654-3.1709-4.04819-5.11438-.0373-.11766-.03854-.24154-.0036-.35972.03494-.11818.10489-.2267.2031-.3151L9.7151 6.47603 5.67521 1.41135z" fill="#fff"/></svg>