<svg width="103" height="103" viewBox="0 0 103 103" fill="none" xmlns="http://www.w3.org/2000/svg">
<path d="M67.8333 65.2933V70.8767C67.8333 71.6171 68.1231 72.3271 68.6388 72.8507C69.1545 73.3742 69.854 73.6683 70.5833 73.6683C71.3127 73.6683 72.0122 73.3742 72.5279 72.8507C73.0436 72.3271 73.3333 71.6171 73.3333 70.8767V29.0017H34.8333V59.71H29.3333V26.21C29.3333 25.4696 29.6231 24.7595 30.1388 24.236C30.6545 23.7125 31.354 23.4183 32.0833 23.4183H76.0833C76.8127 23.4183 77.5122 23.7125 78.0279 24.236C78.5436 24.7595 78.8333 25.4696 78.8333 26.21V70.8767C78.8333 73.0979 77.9642 75.2281 76.417 76.7987C74.8698 78.3693 72.7714 79.2517 70.5833 79.2517H32.0833C29.8953 79.2517 27.7969 78.3693 26.2497 76.7987C24.7025 75.2281 23.8333 73.0979 23.8333 70.8767V65.2933H67.8333Z" fill="white"/>
</svg>
