<svg width="42" height="42" fill="none" xmlns="http://www.w3.org/2000/svg"><path d="M29.7662 13.2646h-2.1984c-.4781 0-.9328.225-1.2141.6105L18.985 23.881l-3.3375-4.5348c-.2813-.381-.7313-.6105-1.2141-.6105H12.235c-.3047 0-.4828.3397-.3047.583l5.8406 7.9312c.138.1886.3199.3422.5306.4482.2107.106.4442.1613.6811.1613.2369 0 .4704-.0553.6812-.1613.2107-.106.3926-.2596.5305-.4482l9.8719-13.4023c.1828-.2433.0047-.583-.3-.583z" fill="#000"/><path d="M21 0C9.40313 0 0 9.20723 0 20.5625 0 31.9178 9.40313 41.125 21 41.125c11.5969 0 21-9.2072 21-20.5625C42 9.20723 32.5969 0 21 0zm0 37.6367c-9.6281 0-17.4375-7.6467-17.4375-17.0742C3.5625 11.135 11.3719 3.48828 21 3.48828S38.4375 11.135 38.4375 20.5625 30.6281 37.6367 21 37.6367z" fill="#000"/></svg>