<svg width="42" height="41" fill="none" xmlns="http://www.w3.org/2000/svg"><path fill-rule="evenodd" clip-rule="evenodd" d="M21 1.82875c-10.5962 0-19.17475 8.53475-19.17475 19.04525 0 7.7175 4.62525 14.3587 11.28225 17.346.6965.3132 1.3773.189 1.9093-.21.2942-.2291.5313-.5232.6928-.8593.1616-.3361.2431-.7051.2382-1.0779v-.9976l-2.3748-.3219c-.0176-.0024-.0351-.0053-.0525-.0088-1.309-.2555-2.1927-.7157-2.8402-1.379-.5443-.5582-.8768-1.2267-1.15855-1.7937l-.098-.1978c-.26041-.5432-.54477-1.0745-.85225-1.5925-.23625-.3745-.42-.567-.602-.6877-.462-.3063-.9065-.8261-.9065-1.4753-.00158-.1869.03843-.3717.11712-.5412.0787-.1695.19411-.3194.33788-.4388.27135-.2148.60952-.3276.9555-.3185.3885 0 .75425.119 1.05875.2555.3115.14.62125.3255.91005.518.7035.469 1.3964 1.0238 1.9827 1.708.6107.7105 1.043 1.162 1.694 1.2547.5355.077 1.0815.0788 1.5067.0595.0591-.3366.1566-.6654.2906-.98-.5194-.1212-1.0318-.2707-1.5348-.448-1.1445-.406-2.4203-1.0377-3.2778-1.9949-.9415-1.0536-1.5242-1.9933-1.8497-3.0923-.31675-1.071-.36925-2.2312-.36925-3.6593 0-2.1875.94675-4.0302 1.65725-5.0085-.273-.8564-.4692-1.7355-.58625-2.6267-.07754-.562-.07695-1.1321.00175-1.694.0875-.5128.3063-1.14275.882-1.5225.5547-.36925 1.2057-.3535 1.7132-.259.5268.09975 1.0745.3185 1.5785.56875.8208.406 1.6363.94845 2.2471 1.40875 1.0535-.3097 2.9172-.7088 4.6025-.7455h.0384c1.687.0367 3.4668.4358 4.4941.7438.6125-.4585 1.4262-1.0028 2.2452-1.40705.504-.25025 1.05-.469 1.5785-.56875.5075-.0945 1.1585-.11025 1.715.25725.574.3815.7945 1.01145.8802 1.52425.0893.5338.0683 1.1305 0 1.694-.1165.8912-.3121 1.7702-.5845 2.6267.7106.9801 1.6573 2.8228 1.6573 5.0085 0 1.4281-.0525 2.5883-.3675 3.6575-.3273 1.1026-.91 2.0405-1.8515 3.0941-.8575.9572-2.1332 1.5889-3.2778 1.9949-.6075.2136-1.2283.3872-1.8585.5198.2153.651.2923 1.1777.2923 1.4805v5.4075c0 .8225.3833 1.5243.9275 1.9338.5285.4007 1.2075.5249 1.904.2205 6.72-2.9611 11.3995-9.6198 11.3995-17.3776 0-10.5087-8.575-19.04345-19.173-19.04345zM16.583 31.8675c-.455.0647-.0017 0-.0017 0h-.0053l-.014.0035-.0507.007c-.26.0305-.5209.0521-.7823.0648-.4935.0227-1.1708.0244-1.8655-.0753-1.3843-.196-2.226-1.176-2.7702-1.813l-.0525-.0595c-.178-.2064-.3691-.4011-.5723-.5828.1802.3325.3675.7036.5688 1.1026l.0174.035.0893.182c.3062.609.5075 1.0149.8418 1.3545.3254.3324.8329.6545 1.8584.8575l3.1395.4252c.2193.0297.4204.1379.5659.3046.1454.1668.2255.3806.2251.6019v1.7973c0 1.4-.6562 2.6477-1.6625 3.4037-.5283.4037-1.1567.6555-1.8176.7283-.6609.0727-1.3291-.0363-1.9326-.3153C5.0785 36.6222 0 29.3475 0 20.874 0 9.338 9.40975 0 21 0c11.5903 0 21 9.338 21 20.874 0 8.5173-5.1432 15.8112-12.4897 19.0505-.604.2737-1.2711.3781-1.9298.302-.6587-.0762-1.2844-.33-1.81-.7343-.5197-.4001-.9396-.9151-1.2269-1.5048-.2872-.5896-.4339-1.2378-.4286-1.8936v-5.4076c0-.1225-.0857-.8295-.5635-1.7797-.0659-.1318-.0992-.2775-.0969-.4248.0024-.1473.0401-.2919.1102-.4216.07-.1296.1703-.2404.2923-.3231.1219-.0827.262-.1347.4084-.1517.6002-.0665 1.6118-.2608 2.632-.6231 1.0395-.3675 1.9722-.8715 2.527-1.4909.8242-.9205 1.2355-1.6275 1.4612-2.3923.2346-.7928.294-1.715.294-3.1378 0-1.9967-1.05-3.6749-1.533-4.2157-.1096-.1222-.1843-.2717-.2164-.4327-.032-.161-.0201-.3277.0345-.4825.2449-.6895.5424-1.7623.6562-2.7196.056-.4812.0595-.8837.0105-1.1742-.011-.1062-.0431-.2092-.0945-.3027-.1205-.0209-.244-.0155-.3622.0157-.2975.056-.6773.196-1.1078.4095-.8575.4235-1.75 1.05-2.303 1.498-.122.0989-.2674.1646-.4223.1907-.1549.0261-.3138.0116-.4614-.0419-1.417-.4635-2.8908-.7303-4.3803-.7928-1.7622.042-3.7957.5425-4.4905.7928-.1476.0535-.3066.068-.4615.0419-.1548-.0261-.3003-.0918-.4223-.1907-.7151-.5758-1.4867-1.0776-2.3029-1.498-.3506-.1841-.7235-.3217-1.1095-.4095-.1177-.031-.2406-.0363-.3606-.0157-.0514.0935-.0835.1965-.0945.3027-.049.2905-.0455.693.0106 1.1742.1137.9573.413 2.0301.6562 2.7196.1102.315.042.665-.182.9152-.483.5408-1.533 2.219-1.533 4.2157 0 1.4211.0595 2.345.294 3.1378.2275.7648.637 1.47 1.4595 2.3923.5565.6194 1.4875 1.1234 2.5288 1.4909.8518.3015 1.7336.5104 2.6302.6231.1845.0197.3585.0952.499.2164.1405.1211.2408.2822.2876.4617.0467.1795.0377.369-.0259.5433-.0637.1743-.1788.3251-.3302.4323-.2888.2065-.4795.5775-.5863 1.0063-.0551.2207-.0879.4464-.098.6737v.0333c.0023.2218-.0762.437-.2207.6053-.1446.1684-.3453.2785-.565.3099z" fill="#fff"/></svg>