<svg width="29" height="24" fill="none" xmlns="http://www.w3.org/2000/svg"><path d="M4.66724-.0000305H24.0542c1.1922-.00008154 2.3392.4763315 3.2057 1.3315105.8665.85518 1.3869 2.02428 1.4544 3.26749l.0072.276V19.125c.0001 1.2452-.456 2.4432-1.2748 3.3483-.8187.9051-1.938 1.4487-3.1282 1.5192L24.0542 24H4.66724c-1.19214.0001-2.33912-.4763-3.20565-1.3315C.595062 21.8133.074674 20.6442.00718055 19.401L1e-8 19.125V4.87497C-.00007805 3.62977.456031 2.43173 1.27476 1.52662 2.09349.621521 3.21278.0779676 4.403.00746967l.26424-.00750018H24.0542 4.66724zM26.5674 8.05948l-11.704 6.43502c-.1322.0729-.2774.1163-.4265.1274-.1491.0111-.2988-.0103-.4395-.0629l-.1378-.063L2.15411 8.06098V19.125c.00003.6588.2372 1.2935.66444 1.7781.42725.4846 1.01333.7837 1.6419.8379l.20679.009H24.0542c.631-.0001 1.2388-.248 1.7028-.6946.464-.4466.7502-1.0591.8018-1.7159l.0086-.2145V8.05948zm-2.5132-5.80951H4.66724c-.63071.00003-1.23835.24776-1.70231.69402-.46395.44627-.7503 1.05843-.8022 1.71498l-.00862.216v.6435L14.3607 12.228l12.2067-6.71103v-.642c-.0001-.65902-.2375-1.29391-.665-1.77856-.4275-.48465-1.014-.78359-1.6428-.83744l-.2054-.009z" fill="#fff"/></svg>