<svg width="65" height="65" viewBox="0 0 65 65" fill="none" xmlns="http://www.w3.org/2000/svg">
<path d="M22.6672 20.5H42.0542C43.2464 20.4999 44.3933 20.9763 45.2599 21.8315C46.1264 22.6867 46.6468 23.8558 46.7143 25.099L46.7215 25.375V39.625C46.7215 40.8702 46.2654 42.0682 45.4467 42.9733C44.628 43.8785 43.5087 44.422 42.3185 44.4925L42.0542 44.5H22.6672C21.4751 44.5001 20.3281 44.0237 19.4616 43.1685C18.5951 42.3133 18.0747 41.1442 18.0072 39.901L18 39.625V25.375C17.9999 24.1298 18.456 22.9318 19.2748 22.0267C20.0935 21.1216 21.2128 20.578 22.403 20.5075L22.6672 20.5H42.0542H22.6672ZM44.5674 28.5595L32.8634 34.9945C32.7312 35.0674 32.586 35.1108 32.4369 35.1219C32.2878 35.133 32.1381 35.1116 31.9974 35.059L31.8595 34.996L20.1541 28.561V39.625C20.1541 40.2838 20.3913 40.9185 20.8186 41.4031C21.2458 41.8877 21.8319 42.1868 22.4604 42.241L22.6672 42.25H42.0542C42.6852 42.2499 43.293 42.002 43.757 41.5554C44.221 41.1089 44.5072 40.4963 44.5587 39.8395L44.5674 39.625V28.5595ZM42.0542 22.75H22.6672C22.0365 22.75 21.4289 22.9978 20.9649 23.444C20.501 23.8903 20.2146 24.5024 20.1627 25.159L20.1541 25.375V26.0185L32.3607 32.728L44.5674 26.017V25.375C44.5673 24.716 44.3299 24.0811 43.9024 23.5964C43.4748 23.1118 42.8884 22.8129 42.2596 22.759L42.0542 22.75Z" fill="white"/>
<rect x="1" y="1" width="62.7215" height="63" rx="31.3607" stroke="white" stroke-width="2"/>
</svg>
