<svg width="103" height="103" viewBox="0 0 103 103" fill="none" xmlns="http://www.w3.org/2000/svg">
<path d="M82.3133 19.1492C82.1219 18.6652 81.754 18.2747 81.2861 18.059C80.8183 17.8434 80.2866 17.8191 79.8016 17.9913C79.3166 18.1634 78.9156 18.5188 78.6821 18.9834C78.4486 19.4481 78.4006 19.9862 78.548 20.4859C81.6137 29.4304 75.5285 36.1103 70.8887 39.6881L69.0143 36.9612C68.384 36.0466 66.9749 35.2862 65.8793 35.2728L55.3589 35.3197C54.0738 35.3591 52.823 35.7503 51.7388 36.452L20.7386 58.5184C20.0176 59.0335 19.5269 59.8177 19.3742 60.6992C19.2214 61.5808 19.4189 62.4878 19.9235 63.2218L34.0112 83.6836C35.0672 85.2079 36.7535 85.0236 38.2583 83.9583L69.2585 61.8885C70.1495 61.2487 71.1791 59.8685 71.5421 58.8132L74.8355 48.2775C75.1985 47.2256 74.9774 45.6209 74.3471 44.7064L73.2053 43.0448C79.4357 38.1973 85.9037 29.6314 82.3133 19.1492V19.1492ZM67.889 50.4985C67.3179 50.9043 66.6736 51.192 65.993 51.3449C65.3124 51.4979 64.6087 51.5132 63.9223 51.39C63.2358 51.2668 62.58 51.0075 61.9922 50.6269C61.4045 50.2463 60.8964 49.7519 60.497 49.1719C59.6883 47.9983 59.3713 46.5468 59.6157 45.1362C59.8601 43.7255 60.6459 42.4709 61.8005 41.6478C62.7057 41.004 63.7865 40.6634 64.8917 40.6736C65.9969 40.6838 67.0714 41.0443 67.9649 41.7048C67.0673 42.2542 66.4502 42.5758 66.3347 42.626C65.9257 42.824 65.595 43.1572 65.3968 43.571C65.1987 43.9847 65.1449 44.4545 65.2442 44.9034C65.3436 45.3523 65.5901 45.7536 65.9435 46.0416C66.2969 46.3296 66.7362 46.4872 67.1894 46.4886C67.4732 46.4886 67.7636 46.4216 68.0375 46.2909C68.6777 45.9827 69.3641 45.6176 70.0802 45.1854C70.2449 46.1906 70.1267 47.2226 69.739 48.1626C69.3514 49.1026 68.7101 49.9123 67.889 50.4985V50.4985Z" fill="white"/>
</svg>
