<svg width="42" height="42" fill="none" xmlns="http://www.w3.org/2000/svg"><path d="M35.2742 9.36559l-.408-.49874-.3818.51917c-.3396.46193-3.2802 4.24358-9.8018 6.91078l-.4955.2027.236.4805c.4148.8447.81 1.7101 1.1804 2.576.1296.304.2544.6085.3807.9168l.1453.3543.3799-.0479c5.8809-.7413 11.7452.4452 12.3219.5684l.6097.1303-.0052-.6234c-.0363-4.354-1.5936-8.3503-4.1616-11.48891zm-1.977-1.4705l.257-.36537-.3342-.29637C29.9674 4.34906 25.6859 2.58942 21 2.58942c-1.4578 0-2.9057.17122-4.3225.51376l-.7382.17846.4557.60754c.4928.65707 3.7328 5.06754 6.6545 10.43892l.2078.382.4071-.1528c6.4929-2.4368 9.2679-6.14337 9.6328-6.66221zM13.7754 4.49972l-.2439-.33201-.3725.17577C8.00243 6.77651 4.14725 11.5282 2.94836 17.2528l-.12457.5948.60766.0076c.82256.0104 8.26445.0405 16.71745-2.2025l.624-.1655-.3164-.5627c-2.9822-5.30516-6.2008-9.77071-6.6811-10.42478zM3.08395 19.9751l-.49571-.0096-.01377.4956c-.00502.1809-.01029.3744-.01029.5641 0 4.7377 1.79596 9.0607 4.73725 12.3288l.45551.5061.34654-.5862c.39845-.6739 5.24002-8.6831 14.30762-11.6216l.0009-.0003c.224-.073.454-.1415.685-.2054l.5575-.1542-.2332-.5293c-.4537-1.0297-.9477-2.0583-1.4665-3.0705l-.1897-.3702-.3985.1192c-8.8855 2.6582-17.51651 2.5483-18.28265 2.5335zm6.45694 14.9804l-.17791.3642.31947.2494c3.12325 2.4384 7.05165 3.8916 11.31615 3.892 2.4745.0067 4.9243-.4913 7.1996-1.4638l.3624-.1549-.066-.3886c-.2708-1.5946-1.3178-7.1168-3.8528-13.7005l-.1738-.4516-.457.159-.1161.0404-.0004.0001C13.608 27.0892 9.89642 34.2278 9.54089 34.9555zm20.98631 1.0236l.128.7678.6451-.4357c4.1394-2.7959 7.082-7.2265 7.9021-12.3548l.0682-.4266-.4121-.1294c-.6362-.1998-5.662-1.7009-11.4001-.784l-.5982.0955.2072.5693c2.3335 6.4084 3.2812 11.6263 3.4598 12.6979zM.5 21C.5 9.69585 9.69585.5 21 .5 32.3041.5 41.5 9.69585 41.5 21c0 11.3041-9.1959 20.5-20.5 20.5C9.69585 41.5.5 32.3041.5 21zm21.9796.1061c-.0746.023-.1489.0465-.2226.0706-8.2905 2.6866-13.10401 9.5106-14.30996 11.3988L22.4796 21.1061z" stroke="#fff"/></svg>