<svg width="65" height="65" viewBox="0 0 65 65" fill="none" xmlns="http://www.w3.org/2000/svg">
<path d="M40.2088 44.4999C39.9293 44.4993 39.6506 44.4731 39.3776 44.4218C34.1795 43.5029 29.3906 41.3485 25.5622 38.2064C21.8154 35.0574 19.2169 31.0481 18.0809 26.6635C17.9469 26.117 17.9798 25.5503 18.1763 25.0179C18.3729 24.4854 18.7265 24.0051 19.2031 23.6233L22.5281 20.8885C22.6979 20.7512 22.8997 20.6461 23.1203 20.58C23.3409 20.5139 23.5753 20.4883 23.8082 20.5049C24.0497 20.5264 24.2828 20.5929 24.4911 20.6997C24.6993 20.8064 24.8776 20.9509 25.0135 21.1229L29.1698 26.3722C29.3257 26.5759 29.4009 26.817 29.3844 27.0599C29.368 27.3029 29.2607 27.5349 29.0784 27.7219L26.9919 29.8529C27.8229 31.4245 28.9997 32.8449 30.4582 34.0367C31.9074 35.2719 33.6202 36.2581 35.5039 36.942L38.0891 35.1875C38.3063 35.0408 38.5705 34.9541 38.8467 34.9389C39.1228 34.9237 39.3979 34.9807 39.6353 35.1022L45.9112 38.5687C46.1266 38.6786 46.3101 38.8287 46.4479 39.0077C46.5858 39.1868 46.6744 39.3902 46.7072 39.6028C46.74 39.8153 46.7161 40.0314 46.6372 40.2349C46.5584 40.4384 46.4267 40.624 46.2521 40.7778L43.0102 43.5197C42.6419 43.8328 42.2048 44.0806 41.7241 44.2489C41.2433 44.4171 40.7283 44.5024 40.2088 44.4999V44.4999ZM23.6752 21.9113L20.3502 24.6461C20.0821 24.8596 19.8836 25.1291 19.7743 25.428C19.665 25.7269 19.6486 26.045 19.7268 26.3509C20.783 30.4653 23.2111 34.2302 26.7176 37.1906C30.3204 40.1467 34.827 42.1732 39.7184 43.0367C40.0886 43.1028 40.4723 43.0894 40.835 42.9977C41.1977 42.9059 41.5281 42.7387 41.7965 42.511L45.0384 39.7691L38.9786 36.4235L36.2022 38.3129C36.0959 38.3848 35.9707 38.4334 35.8374 38.4545C35.7041 38.4755 35.5668 38.4684 35.4374 38.4337C33.1321 37.7079 31.043 36.5557 29.3194 35.0596C27.5367 33.637 26.1529 31.8887 25.2712 29.9452C25.2339 29.8276 25.2327 29.7037 25.2676 29.5855C25.3026 29.4673 25.3725 29.3588 25.4707 29.2704L27.7151 26.976L23.6752 21.9113Z" fill="white"/>
<rect x="1" y="1" width="62.7215" height="63" rx="31.3607" stroke="white" stroke-width="2"/>
</svg>
