<svg width="41" height="37" fill="none" xmlns="http://www.w3.org/2000/svg"><path d="M40.3259 8.86481c-.1871-.26594-.437-.48331-.7283-.63349-.2912-.15017-.6151-.22868-.944-.22879H10.8495L8.50176 2.46079C8.19393 1.731 7.67268 1.10754 7.00408.669442 6.33549.231349 5.54967-.0016426 4.74626.00000872H0V4.00127h4.74626L14.3975 26.7785c.1545.3644.4153.6757.7495.8946.3341.219.7267.3358 1.1282.3358h16.2752c.8484 0 1.6072-.5182 1.9062-1.2965l6.1032-16.005c.1154-.3029.1544-.6287.1136-.94961-.0407-.32091-.16-.62732-.3475-.89298zM31.1406 24.0076H17.6321l-5.086-12.0038H35.718l-4.5774 12.0038zM17.2928 36.0112c1.6853 0 3.0516-1.3436 3.0516-3.0009 0-1.6574-1.3663-3.001-3.0516-3.001-1.6854 0-3.0516 1.3436-3.0516 3.001 0 1.6573 1.3662 3.0009 3.0516 3.0009zM31.5336 36.0112c1.6853 0 3.0516-1.3436 3.0516-3.0009 0-1.6574-1.3663-3.001-3.0516-3.001-1.6854 0-3.0517 1.3436-3.0517 3.001 0 1.6573 1.3663 3.0009 3.0517 3.0009z" fill="#000"/></svg>