<svg width="136" height="137" fill="none" xmlns="http://www.w3.org/2000/svg"><path fill-rule="evenodd" clip-rule="evenodd" d="M45.5311 14.327C51.3428 14.0595 53.1958 14 68 14c14.8042 0 16.6572.0644 22.4639.327 5.8067.2626 9.7701 1.1891 13.2381 2.5318 3.632 1.3724 6.927 3.5177 9.652 6.2922 2.774 2.7201 4.915 6.0099 6.282 9.6465 1.348 3.4682 2.269 7.4319 2.537 13.2287.268 5.8216.327 7.6746.327 22.4738 0 14.8042-.064 16.6572-.327 22.4689-.263 5.7968-1.189 9.7601-2.537 13.2291-1.367 3.637-3.511 6.932-6.282 9.656-2.725 2.774-6.02 4.915-9.652 6.282-3.468 1.348-7.4314 2.269-13.2282 2.537-5.8166.268-7.6696.327-22.4738.327-14.8042 0-16.6572-.064-22.4689-.327-5.7968-.263-9.7604-1.189-13.2286-2.537-3.637-1.367-6.9323-3.511-9.6564-6.282-2.7727-2.722-4.9183-6.015-6.2873-9.652-1.3427-3.468-2.2643-7.4314-2.5318-13.2282-.2675-5.8216-.327-7.6746-.327-22.4738 0-14.8042.0644-16.6572.327-22.4639.2626-5.8067 1.1891-9.7704 2.5318-13.2386 1.371-3.6362 3.5183-6.9298 6.2922-9.6514 2.7203-2.7721 6.0122-4.9177 9.6465-6.2873 3.4682-1.3427 7.4319-2.2643 13.2287-2.5318h.0049zm44.4919 9.81c-5.7473-.2626-7.4715-.3171-22.023-.3171s-16.2757.0545-22.023.3171c-5.3162.2428-8.1997 1.1296-10.1221 1.8778-2.5417.9909-4.36 2.1651-6.2675 4.0726-1.8082 1.7591-3.1997 3.9006-4.0726 6.2675-.7482 1.9224-1.635 4.8059-1.8778 10.1221-.2626 5.7473-.3171 7.4715-.3171 22.023s.0545 16.2757.3171 22.023c.2428 5.3162 1.1296 8.1997 1.8778 10.122.872 2.363 2.2642 4.509 4.0726 6.268 1.7589 1.808 3.9042 3.2 6.2675 4.072 1.9224.748 4.8059 1.635 10.1221 1.878 5.7473.263 7.4665.317 22.023.317s16.2757-.054 22.023-.317c5.3162-.243 8.1997-1.13 10.122-1.878 2.542-.991 4.36-2.165 6.268-4.072 1.808-1.759 3.2-3.905 4.072-6.268.748-1.9223 1.635-4.8058 1.878-10.122.263-5.7473.317-7.4715.317-22.023s-.054-16.2757-.317-22.023c-.243-5.3162-1.13-8.1997-1.878-10.1221-.991-2.5417-2.165-4.36-4.072-6.2675-1.76-1.808-3.901-3.1996-6.268-4.0726-1.9223-.7482-4.8058-1.635-10.122-1.8778zM61.0389 85.3009c3.8876 1.6183 8.2165 1.8367 12.2472.6179 4.0308-1.2188 7.5134-3.7992 9.8531-7.3004 2.3396-3.5013 3.3911-7.7062 2.9749-11.8966-.4163-4.1903-2.2744-8.1063-5.2571-11.0788-1.9013-1.9002-4.2004-3.3552-6.7315-4.2602-2.5312-.905-5.2316-1.2376-7.9067-.9737-2.6751.2638-5.2585 1.1175-7.564 2.4996-2.3056 1.3821-4.2761 3.2582-5.7696 5.4932s-2.4729 4.7734-2.8676 7.4324c-.3948 2.6589-.1951 5.3723.5847 7.9449.7798 2.5725 2.1203 4.9401 3.9249 6.9324 1.8046 1.9923 4.0286 3.5596 6.5117 4.5893zM48.1917 48.6917c2.6013-2.6012 5.6894-4.6647 9.0881-6.0725 3.3987-1.4077 7.0415-2.1323 10.7202-2.1323s7.3215.7246 10.7202 2.1323c3.3987 1.4078 6.4868 3.4713 9.0881 6.0725 2.6012 2.6013 4.6647 5.6894 6.0725 9.0881 1.4077 3.3987 2.1323 7.0415 2.1323 10.7202s-.7246 7.3215-2.1323 10.7202c-1.4078 3.3987-3.4713 6.4868-6.0725 9.0881C82.5548 93.5618 75.4295 96.5131 68 96.5131c-7.4295 0-14.5548-2.9513-19.8083-8.2048-5.2535-5.2535-8.2048-12.3788-8.2048-19.8083 0-7.4295 2.9513-14.5548 8.2048-19.8083zm54.0343-4.033c.645-.608 1.161-1.3393 1.518-2.1504.357-.8111.547-1.6855.56-2.5716.013-.8861-.152-1.7657-.485-2.5869-.333-.8211-.828-1.5671-1.454-2.1937-.627-.6266-1.373-1.1211-2.194-1.4543-.8213-.3331-1.701-.4981-2.5871-.4852-.886.0129-1.7605.2035-2.5716.5604-.8111.357-1.5423.873-2.1504 1.5176-1.1826 1.2537-1.83 2.9189-1.8049 4.6421.0251 1.7232.7208 3.3688 1.9395 4.5875 1.2186 1.2186 2.8642 1.9143 4.5874 1.9395 1.7233.0251 3.3881-.6224 4.6421-1.805z" fill="#fff"/></svg>