<svg width="136" height="136" fill="none" xmlns="http://www.w3.org/2000/svg"><path d="M19.3066 51.9329c-.5525.0159-1.1015.1691-1.5941.4589-1.0183.5989-1.6436 1.6921-1.6436 2.8735v.2793c-.0003 5.777 1.998 11.3762 5.656 15.8476.9589 1.1721 2.0163 2.2478 3.1567 3.2177-.133.1098-.2584.2308-.3748.3624-.7794.8814-1.0365 2.1084-.6765 3.2285 1.5977 4.9707 4.7097 9.3174 8.9004 12.4316 1.7971 1.3354 3.7539 2.4155 5.8146 3.2212-5.6119 2.8417-11.8474 4.3432-18.2113 4.3339h-.0058c-1.5995.0004-3.1975-.093-4.786-.2798-1.5414-.1812-3.0039.7251-3.5276 2.1863-.5238 1.461.0298 3.09 1.3352 3.929 10.4514 6.72 22.6176 10.286 35.0429 10.272 42.1144-.002 65.0313-34.9415 65.0313-65.0299 0-.3929-.004-.7866-.011-1.1797 3.957-3.0964 7.4-6.8046 10.197-10.9879l.003-.0046.009-.0139-2.774-1.8485-1.351-3.048c-.157.0694-.314.1378-.471.2053.847-1.4896 1.545-3.0718 2.077-4.7252.424-1.3194-.012-2.7636-1.096-3.6275-1.084-.8638-2.589-.967-3.781-.2593-3.429 2.0373-7.142 3.5477-11.013 4.4838-3.569-3.2627-8.0189-5.4315-12.8175-6.2221-5.4387-.896-11.0211.0286-15.8805 2.6303-4.8594 2.6017-8.724 6.735-10.9936 11.7581-1.6501 3.6521-2.3901 7.6261-2.1871 11.5858-6.7418-.8117-13.3004-2.7975-19.3755-5.8774-7.2833-3.6925-13.7088-8.8752-18.8596-15.2117-.6912-.8503-1.7562-1.3067-2.8486-1.2207-1.0925.0861-2.073.7035-2.6226 1.6516-2.1457 3.7014-3.3818 7.9989-3.3822 12.5719v.0019m3.0608 12.0056l-3.0608-12.0056m3.0608 12.0056c-.0362-.0664-.0721-.1329-.1077-.1996-1.9408-3.6324-2.9551-7.6876-2.9531-11.806m3.0608 12.0056l-3.0608-12.0056m4.0792 64.9277h-.0008l.001-.656c-1.7664-.906-3.4927-1.9-5.1724-2.98l5.1722 3.636zm0 0c.4289.001.8573-.004 1.2852-.016l-1.2852.016z" stroke="#fff" stroke-width="6.66768" stroke-linejoin="round"/></svg>