<svg width="103" height="103" viewBox="0 0 103 103" fill="none" xmlns="http://www.w3.org/2000/svg">
<path fill-rule="evenodd" clip-rule="evenodd" d="M27.1833 22.935H75.4833C76.3983 22.935 77.2759 23.309 77.9229 23.9748C78.5699 24.6405 78.9333 25.5435 78.9333 26.485V76.185C78.9333 77.1265 78.5699 78.0295 77.9229 78.6952C77.2759 79.361 76.3983 79.735 75.4833 79.735H27.1833C26.2683 79.735 25.3908 79.361 24.7438 78.6952C24.0968 78.0295 23.7333 77.1265 23.7333 76.185V26.485C23.7333 25.5435 24.0968 24.6405 24.7438 23.9748C25.3908 23.309 26.2683 22.935 27.1833 22.935V22.935ZM16.8333 26.485C16.8333 23.6604 17.9238 20.9516 19.8648 18.9543C21.8058 16.957 24.4384 15.835 27.1833 15.835H75.4833C78.2283 15.835 80.8609 16.957 82.8019 18.9543C84.7429 20.9516 85.8333 23.6604 85.8333 26.485V76.185C85.8333 79.0096 84.7429 81.7184 82.8019 83.7157C80.8609 85.7129 78.2283 86.835 75.4833 86.835H27.1833C24.4384 86.835 21.8058 85.7129 19.8648 83.7157C17.9238 81.7184 16.8333 79.0096 16.8333 76.185V26.485ZM51.3333 51.335C41.8079 51.335 34.0833 41.7997 34.0833 30.035H40.9833C40.9833 39.1443 46.7448 44.235 51.3333 44.235C55.9218 44.235 61.6833 39.1443 61.6833 30.035H68.5833C68.5833 41.7997 60.8588 51.335 51.3333 51.335Z" fill="white"/>
</svg>
