<svg width="136" height="137" fill="none" xmlns="http://www.w3.org/2000/svg"><path fill-rule="evenodd" clip-rule="evenodd" d="M92.7446 79.0306c-1.3474-.6737-7.9536-3.9202-9.1835-4.3724-1.2298-.4476-2.1251-.6692-3.0249.6782-.8953 1.3385-3.4682 4.368-4.2504 5.2633-.7868.8998-1.569 1.0083-2.9119.3391-1.343-.6783-5.6747-2.0936-10.8068-6.6695-3.9926-3.563-6.692-7.9626-7.4743-9.3101-.7822-1.3429-.0859-2.0709.5878-2.7401.6059-.6014 1.343-1.569 2.0167-2.3512.6737-.7868.8953-1.3475 1.3429-2.2473.4522-.8953.2261-1.6775-.113-2.3513-.3346-.6737-3.0205-7.2889-4.1419-9.9793-1.0897-2.618-2.1975-2.2608-3.0204-2.306-.7868-.0362-1.6821-.0452-2.5774-.0452s-2.3512.3346-3.5811 1.682c-1.2344 1.343-4.7026 4.594-4.7026 11.2092 0 6.6107 4.8111 12.9998 5.4848 13.8996.6737.8953 9.4729 14.4693 22.9519 20.2887 3.2104 1.3836 5.7109 2.211 7.6597 2.826 3.2194 1.0264 6.1495.8817 8.4646.5335 2.5773-.3843 7.949-3.251 9.0704-6.3891 1.1169-3.138 1.1169-5.8284.7823-6.389-.3347-.5607-1.2299-.8953-2.5774-1.5691h.0045zM68.2282 112.504h-.0181c-8.0059.002-15.8648-2.15-22.7529-6.23l-1.6278-.968-16.9201 4.44 4.5172-16.4948-1.0626-1.6911c-4.4758-7.1245-6.8445-15.3701-6.8322-23.7839.009-24.643 20.058-44.692 44.7146-44.692 11.9372 0 23.1599 4.6573 31.5973 13.1037 4.1614 4.1445 7.4604 9.073 9.7044 14.5005 2.245 5.4275 3.391 11.2462 3.372 17.1195-.009 24.643-20.0578 44.6961-44.6918 44.6961zm38.0358-82.7323c-4.982-5.0148-10.9093-8.9911-17.4392-11.6984-6.53-2.7073-13.5322-4.0917-20.6011-4.0731-29.6349 0-53.7625 24.123-53.7715 53.7715-.0046 9.4774 2.4688 18.7287 7.1758 26.8813L14 122.52l28.5045-7.479c7.8852 4.296 16.7215 6.547 25.7011 6.547h.0226c29.6349 0 53.7628-24.1226 53.7718-53.7756.022-7.0661-1.358-14.0664-4.059-20.596s-6.67-12.4588-11.677-17.4447" fill="#fff"/></svg>