<svg width="23" height="24" fill="none" xmlns="http://www.w3.org/2000/svg"><path d="M9.50114.608604C9.93726.216764 10.5029 0 11.0891 0c.5863 0 1.1519.216764 1.5881.608604l8.7122 7.828376c.2477.22276.4458.49512.5815.7994.1356.30428.2057.63368.2058.96682v11.1755c0 .6301-.2503 1.2345-.6959 1.6801-.4456.4456-1.05.696-1.6802.696h-3.9601c-.6302 0-1.2345-.2504-1.6801-.696-.4456-.4456-.696-1.05-.696-1.6801v-5.5442c0-.2101-.0834-.4115-.2319-.56-.1486-.1486-.35-.232-.5601-.232H9.5043c-.21005 0-.41151.0834-.56004.232-.14854.1485-.23198.3499-.23198.56v5.5442c0 .6301-.25034 1.2345-.69594 1.6801s-1.04996.696-1.68014.696H2.37608c-.63018 0-1.23454-.2504-1.680143-.696C.250336 22.6132 0 22.0088 0 21.3787V10.2032c0-.67322.285129-1.31476.788857-1.76622L9.50114.608604zM11.6174 1.78714c-.1453-.13047-.3337-.20263-.529-.20263-.1954 0-.3838.07216-.5291.20263L1.847 9.61552c-.08253.07408-.14858.16468-.19388.26591-.0453.10124-.06883.21087-.06907.32177v11.1755c0 .21.08345.4115.23198.56.14853.1486.34999.232.56005.232H6.3362c.21006 0 .41151-.0834.56005-.232.14853-.1485.23198-.35.23198-.56v-5.5442c0-.6302.25033-1.2345.69593-1.6801.4456-.4456 1.04997-.696 1.68014-.696h3.1681c.6302 0 1.2345.2504 1.6801.696.4456.4456.696 1.0499.696 1.6801v5.5442c0 .21.0834.4115.232.56.1485.1486.3499.232.56.232h3.9601c.2101 0 .4115-.0834.5601-.232.1485-.1485.232-.35.232-.56V10.2032c-.0003-.1109-.0238-.22053-.0691-.32177-.0453-.10123-.1114-.19183-.1939-.26591l-8.7123-7.82838z" fill="#fff"/></svg>